<svg id="Layer_1" data-name="Layer 1" xmlns="http://www.w3.org/2000/svg" width="236.33" height="100" viewBox="0 0 236.33 100"><defs><style>.cls-1{fill:#433e3f;}.cls-1,.cls-2,.cls-3,.cls-4{fill-rule:evenodd;}.cls-2{fill:#855752;}.cls-3{fill:#eef0ef;}.cls-4{fill:#89807e;}</style></defs><title>Artboard 1</title><polygon class="cls-1" points="4.97 50.46 39.81 96.89 74.66 50.46 39.81 3.97 4.97 50.46"/><polygon class="cls-2" points="7.98 50.46 39.81 7.99 71.65 50.46 39.81 92.88 7.98 50.46"/><polygon class="cls-1" points="8.98 50.46 39.81 91.54 70.65 50.46 39.81 9.32 8.98 50.46"/><path class="cls-3" d="M20.72,62.08,12,50.46,39.81,13.34,56.1,35.08l-.74.44-.82.56L54,35.9A14.19,14.19,0,0,0,50.49,35l-1.17-.07-.58-.67a10.82,10.82,0,0,0-4.39-2.82,13.19,13.19,0,0,0-3-.6,31.71,31.71,0,0,0-6.63.33c-1.57.17-3.89.41-4.72.08a2.69,2.69,0,0,0-1.75-.15,1.18,1.18,0,0,0,.21,2.07l.83.45a4.79,4.79,0,0,1,.71.58l-.58.22a16.14,16.14,0,0,0-4.95,3.14,14.29,14.29,0,0,0-4,6.29l-.2.72c-.13.46.62.46.78,0l.24-.68a14.67,14.67,0,0,1,3.91-5.75,13.21,13.21,0,0,1,4.94-2.92l.63-.1a1.45,1.45,0,0,1,.21.46,2.23,2.23,0,0,1,.07.57v3.25l-.41.34a14.87,14.87,0,0,0-1.36,1,13.44,13.44,0,0,0-1.85,1.71,15.3,15.3,0,0,0-2,2.79A13.66,13.66,0,0,0,24,49a6.69,6.69,0,0,0,0,2.87,5.1,5.1,0,0,0,3.15,3.66,6.69,6.69,0,0,0,3.31.4l.65-.19v2.71l0,6.92-.32.25a6.25,6.25,0,0,1-4.71,1,4.3,4.3,0,0,1-1.13-.46l-.42-.23a1,1,0,0,1-.29-1.12c.26-1,.93-1.27.8-2a2.39,2.39,0,0,0-1.5-1.93c-1-.37-2.43-.09-2.7.83Z"/><path class="cls-3" d="M61.07,41.69l6.57,8.76L39.81,87.52,25.36,68.26l-.79-1,.73.17a6.45,6.45,0,0,0,3.29-.1,16.65,16.65,0,0,0,2.11-.75l.39-.29v1.07c0,.82-.25,1.69-1.09,1.91l-1,.26c-.48.12-1,.3-1.1.85s.19,1,.44,1h4c.91,0,2.3,0,4.11.05l3.45.1a11.42,11.42,0,0,0,5-1.32A15.35,15.35,0,0,0,49,66.48c3-3.66,4.06-8.35,4.39-13l0-.69,1-.15a12.39,12.39,0,0,0,2.71-.78,9,9,0,0,0,3.81-3.08,6.74,6.74,0,0,0,.64-5.51Z"/><path class="cls-3" d="M49.54,51.44l-.83-.18-.87-.42c-.53-.26-.9.48-.47.82l.45.37a5.23,5.23,0,0,0,1.21.54,5.1,5.1,0,0,0,1.08.2v.94a19.76,19.76,0,0,1-3,11,9.92,9.92,0,0,1-6.62,4.52c-2.25.43-4,.33-5.21-.38-.93-.56-1.47-1.16-1.47-1.69V65.13l1.72-1a26.78,26.78,0,0,0,4.83-4.45,51.61,51.61,0,0,0,3.85-5.53q2-3.2,4.27-7.52l.81-1.54.13.78c.14.88.47,2.67.54,3.47l.14,1.49v.6Z"/><path class="cls-3" d="M34.51,54.68l1.79-1a15.67,15.67,0,0,0,3.92-3.59,17.3,17.3,0,0,0,3-7.8,9,9,0,0,0-.09-2.46q-.09-.53-.19-.94a4.69,4.69,0,0,0-1.36-2.51l-.46-.4.4-.1c.41-.1,1.05-.21,1.53-.28a7.59,7.59,0,0,1,1.06-.06l.6.07a3.3,3.3,0,0,1,1.32,1.21,15.55,15.55,0,0,1,2.06,4.06L48.33,42l-.91,1-1.8,2.25a57.65,57.65,0,0,0-3.44,5.49l-1,1.8c-4.09,7.12-5.48,9.41-6.68,10.49l-.65.58,0-8.59Z"/><path class="cls-3" d="M43.49,34.42l.49.37-.93.07a18.54,18.54,0,0,0-2.11.42l-.56.14-.74-.47a8.25,8.25,0,0,0-3.22-1.17l-.85-.13,1-.31a13.4,13.4,0,0,1,3.71-.16A7.18,7.18,0,0,1,43.49,34.42Z"/><path class="cls-3" d="M40.27,36.67a3.79,3.79,0,0,1,.37.57,5.14,5.14,0,0,1,.5,1.49,9.5,9.5,0,0,1-.1,3.44,16.07,16.07,0,0,1-3.43,7.07,13.38,13.38,0,0,1-3.46,3l-.39.25,0-10.9V38.8c0-.06.22-.29.65-.54l.47-.26a16.63,16.63,0,0,1,4.24-1.49l.75-.18Z"/><path class="cls-3" d="M30.36,54.34a5.66,5.66,0,0,1-3.2-.36,3.6,3.6,0,0,1-2-2.37A6.4,6.4,0,0,1,25,49a9.39,9.39,0,0,1,1.28-3.5,16.32,16.32,0,0,1,2-2.67,12.77,12.77,0,0,1,1.24-1.19c.49-.41,1-.85,1.24-1l.29-.22v1.21l0,11.72v.73Z"/><path class="cls-3" d="M53.35,49c-.05-.73-.33-3.13-.58-4.42l-.68-2.93a3.07,3.07,0,0,1,0-1.35l.67-.94A12.84,12.84,0,0,1,54,37.94c.32-.33.49-.42.62-.55l.23-.21.35.21a3.27,3.27,0,0,1,.88.69,7.43,7.43,0,0,1,1.81,4.08,11.54,11.54,0,0,1-1.27,6.08,7.47,7.47,0,0,1-1.74,2.17,6.72,6.72,0,0,1-1.43.74Z"/><path class="cls-3" d="M38.3,35.92a13.75,13.75,0,0,0-4.09,1.66l-.48.3V35.52a1.23,1.23,0,0,1,1.18-1.11l1.09.11.82.18a10,10,0,0,1,1.7.65l.69.35Z"/><path class="cls-3" d="M49.74,35.61h.53a14.58,14.58,0,0,1,3.23.79l.46.18L53.4,37A7.32,7.32,0,0,0,52,38.18l-.65.74-.08-.25a10.87,10.87,0,0,0-.55-1.33l-.42-.85Z"/><polygon class="cls-3" points="56.6 35.74 57.41 36.81 55.84 36.23 56.6 35.74"/><path class="cls-4" d="M93.06,69.09a17.35,17.35,0,0,1,3-5.42,4.54,4.54,0,0,1,3.29-2,1.05,1.05,0,0,1,.82.43,1.52,1.52,0,0,1,.36,1q0,1.78-2.18,3.63A10.48,10.48,0,0,1,93.06,69.09Zm31.87-4.85a4.43,4.43,0,0,1,.89.4,2.68,2.68,0,0,0,1.28.43,1.86,1.86,0,0,0,1.35-.58,1.79,1.79,0,0,0,.58-1.36,1.82,1.82,0,0,0-1.84-1.81,2.35,2.35,0,0,0-.62.09L128,59l-2.82.38-3.12,5.34q-3,3.07-9.58,11.18-6.06,7.55-10.3,12A63.65,63.65,0,0,1,94.39,95a68.65,68.65,0,0,0,11.15-21.7l.1-.34a46.91,46.91,0,0,1,1.72-4.81A13.22,13.22,0,0,1,109,65.27a16.6,16.6,0,0,1,1.23-1.33q1.23-1.23,1.23-1.89a.92.92,0,0,0-.15-.58.62.62,0,0,0-.46-.2c-.53,0-1.21.63-2,1.86a19.87,19.87,0,0,1-1.38,1.94c-.17.22-1.11,1.21-2.78,3s-3.22,3.58-4.6,5.25c-.87,1.08-2.2,2.78-4,5.1Q87.74,89.34,81.87,94.52a74.81,74.81,0,0,0,6.8-11.9,68,68,0,0,0,4.16-12.73,13,13,0,0,0,5.9-2.71c1.62-1.36,2.42-2.71,2.42-4a2.21,2.21,0,0,0-.58-1.57A2.08,2.08,0,0,0,99,61a6.88,6.88,0,0,0-4.38,2.13,21.57,21.57,0,0,0-4.4,5.76c-.72-.19-1.45-1.14-2.2-2.85-.17-.39-.29-.68-.36-.87a8,8,0,0,0-2.32-3.22,5.52,5.52,0,0,0-3.34-1,14.65,14.65,0,0,0-5.76,1.28,17.73,17.73,0,0,0-5.37,3.53,13.45,13.45,0,0,0-3,4.14,10.66,10.66,0,0,0-1.09,4.62,6,6,0,0,0,1.62,4.38,5.48,5.48,0,0,0,4.16,1.67,8.66,8.66,0,0,0,7-3.8,13.82,13.82,0,0,0,3-8.73,2.05,2.05,0,0,0-.1-.7c-.07-.19-.12-.29-.19-.29s-.41.53-.7,1.57a16.25,16.25,0,0,1-5.15,8.11,8,8,0,0,1-5,2,3.53,3.53,0,0,1-2.78-1.23,4.63,4.63,0,0,1-1.09-3.17,10,10,0,0,1,1.28-4.74,14.68,14.68,0,0,1,3.58-4.23,16,16,0,0,1,3.94-2.39A10.36,10.36,0,0,1,80.15,62c1.18,0,2.3.94,3.31,2.83a17.68,17.68,0,0,0,1.23,2A7.55,7.55,0,0,0,87,69.09a5.72,5.72,0,0,0,2.78.75,79.76,79.76,0,0,0-3.73,10.43,77.29,77.29,0,0,1-3.89,10.67A32.48,32.48,0,0,1,79.81,95a9.27,9.27,0,0,0-1.36,2.3.4.4,0,0,0,.12.29.39.39,0,0,0,.27.12c.39,0,1.38-.7,3-2.11s3.43-3.19,5.54-5.42q3.48-3.74,8.9-10.86t8-9.92a86.17,86.17,0,0,0-5.59,12.48c-1.81,4.93-3,8-3.58,9.17A25.37,25.37,0,0,1,92.72,95a7.54,7.54,0,0,0-1.4,2.34.61.61,0,0,0,.17.34.39.39,0,0,0,.24.12c.6,0,2.44-1.35,5.49-4.09a105.19,105.19,0,0,0,9.6-9.89c2.11-2.39,4.79-5.64,8.11-9.68q3-3.71,5.16-6l-.45.77a48,48,0,0,1-5.5,7.66c-2,2.25-3,3.37-3,3.39a.17.17,0,0,0,0,.13.45.45,0,0,0,.21,0,1,1,0,0,0,.38-.23,5.5,5.5,0,0,0,.61-.59l3.47-3.72-6.24,10,2.65-.3a95.88,95.88,0,0,1,7.11-8.27c2-2,3.37-3.05,4-3.05a.61.61,0,0,1,.36.11.91.91,0,0,1,.13.42,5.12,5.12,0,0,1-1.25,2.05l-.65.81a19.53,19.53,0,0,0-2.25,3.26,4.66,4.66,0,0,0-.53,2.08,4,4,0,0,0,.57,2.22,1.75,1.75,0,0,0,1.51.85,3.62,3.62,0,0,0,1.84-.91,26.92,26.92,0,0,0,3-2.73c.89-.91,1.46-1.53,1.71-1.84a1.38,1.38,0,0,0,.38-.68.18.18,0,0,0-.06-.15.24.24,0,0,0-.17-.06c-.11,0-.38.25-.83.76s-.83.93-1.16,1.27a28.57,28.57,0,0,1-2.92,2.75,3.63,3.63,0,0,1-1.76,1,.63.63,0,0,1-.53-.21.9.9,0,0,1-.17-.57,3,3,0,0,1,.42-1.27,23.9,23.9,0,0,1,1.56-2.37c.13-.17.3-.42.53-.74,1.44-1.95,2.16-3.47,2.16-4.55a2.53,2.53,0,0,0-.44-1.55,1.41,1.41,0,0,0-1.19-.59A4.83,4.83,0,0,0,121,74.58a68.11,68.11,0,0,0-5.25,5.34Z"/><path class="cls-1" d="M135.89,24.72c8.67,8.69,12,12.41,16.59,17.68h2.45V22.14c0-.48.12-.68.71-.92l3.08-1.2a.32.32,0,0,0,.23-.28c0-.12-.1-.26-.39-.26h-9.93a.29.29,0,0,0-.3.28.45.45,0,0,0,.32.36l2,.68c1.16.4,1.45.8,1.45,2V36.66c-1.26-1.23-1.33-1.29-4.27-4.21l-2.16-2.18q-2.21-2.35-4.43-4.69-3-3.32-6-6.66h-2.54c.14,4.39.29,8.77.3,13.15,0,2,0,3.46-.06,5-.05,2.43-.22,2.47-.31,2.6a1.38,1.38,0,0,1-.77.57l-2.59.93c-.15.06-.31.17-.31.33s.12.31.43.31h9.73c.26,0,.41-.15.41-.3s-.19-.27-.34-.33l-2.65-1.08c-.43-.17-.61-.36-.61-1.13Z"/><path class="cls-1" d="M189.26,31l2.53-6.29,2.6,6.29Zm-.85,2.28h6.92l2.4,5.94a1.2,1.2,0,0,1,.08.41.77.77,0,0,1-.51.73l-2.28.93a.32.32,0,0,0-.23.27c0,.11.1.25.34.25h9.28c.36,0,.45-.13.45-.28s-.16-.27-.31-.33l-2-.81c-.8-.33-1.07-.78-2-3l-.7-1.6c-.3-.66-.54-1.4-.84-2.06-.36-.87-.77-1.67-1.13-2.55-2.21-5.16-3.23-7.89-4.55-11.86h-2.52c-1.37,4.16-1.79,5.34-3.1,8.79-1.53,3.92-3.2,7.91-3.93,9.58-.83,1.91-.9,2.22-1.67,2.57l-2.29,1c-.13.06-.28.16-.28.3s.1.26.36.26h8.75c.3,0,.41-.15.41-.28s-.21-.26-.36-.32l-2.22-1c-.35-.16-.42-.32-.42-.51a1.2,1.2,0,0,1,.09-.39Z"/><path class="cls-1" d="M96.05,39.79a15.55,15.55,0,0,1-2.71-.24c-.63-.15-.87-.44-.87-1l0-15.68c0-.65.19-.94,1-1.14a12.46,12.46,0,0,1,2.88-.3c6,0,10.19,4.25,10.19,9.32s-3.93,9.06-9.92,9.06ZM85.57,41.53c0,.14,0,.29.67.29h9.81A16.23,16.23,0,0,0,104.11,40,11.68,11.68,0,0,0,109,34.49a11.07,11.07,0,0,0,.82-4.17,11,11,0,0,0-7.52-10.13,16.32,16.32,0,0,0-6.17-.9c-1,0-2,.08-3,.11s-2,.09-3,.11l-4.1,0c-.33,0-.45.19-.45.36s.2.31.37.37l2,.73a1.77,1.77,0,0,1,.85.59c.34.44.34,1,.42,2.67,0,.88.17,4.67.17,7.77,0,.86,0,1.67-.17,5.37,0,.44,0,.88-.08,1.33-.09.83-.09,1.4-1.05,1.73L86,41.11C85.79,41.19,85.57,41.3,85.57,41.53Z"/><path class="cls-4" d="M216.63,83.56a7.92,7.92,0,0,1,.68-2.82,16.19,16.19,0,0,1,1.86-3.35,12.38,12.38,0,0,1,2.47-2.6,4,4,0,0,1,2.31-.91,1.45,1.45,0,0,1,1,.38,1.3,1.3,0,0,1,.4,1,7,7,0,0,1-1,3.15,19,19,0,0,1-2.73,3.77,13,13,0,0,1-2.22,2,3.42,3.42,0,0,1-1.8.72,1,1,0,0,1-.76-.36A1.54,1.54,0,0,1,216.63,83.56Zm3.81,3.64a56.93,56.93,0,0,1-5,8.72c-1.35,1.76-2.56,2.62-3.64,2.62a1.21,1.21,0,0,1-.93-.36,1.66,1.66,0,0,1-.32-1.1c0-1.29.87-2.79,2.61-4.53A34.64,34.64,0,0,1,220.44,87.2Zm5.46-11a2.89,2.89,0,0,0,.13-.51,2.82,2.82,0,0,0,0-.44,1.86,1.86,0,0,0-.61-1.46,2.48,2.48,0,0,0-1.67-.55,7.84,7.84,0,0,0-3.72,1.1A17.84,17.84,0,0,0,216,77.49c-.61.64-1.12,1.16-1.48,1.61a2.6,2.6,0,0,0-.55.83.18.18,0,0,0,0,.13.45.45,0,0,0,.22,0,.66.66,0,0,0,.4-.23,3.51,3.51,0,0,0,.49-.61,6.83,6.83,0,0,0-.19,1,5.5,5.5,0,0,0-.09,1,6.57,6.57,0,0,0,.68,3.24,2,2,0,0,0,1.82,1.19,4.55,4.55,0,0,0,2.56-1,19.8,19.8,0,0,0,3.26-3.15l-2.22,4.76A52.49,52.49,0,0,0,212,92.43c-1.75,1.65-2.64,3.17-2.64,4.57a2.21,2.21,0,0,0,.55,1.61,2.3,2.3,0,0,0,1.65.55c1.46,0,3.17-1.1,5.14-3.28a45.88,45.88,0,0,0,6.12-9.33,31.55,31.55,0,0,0,5.48-4.17c1.59-1.5,2.37-2.45,2.37-2.86a.3.3,0,0,0,0-.15.24.24,0,0,0-.17-.06,44.8,44.8,0,0,1-7,6.25c1-1.88,2-3.83,3.2-5.89s2.39-4.11,3.7-6.24l-2.64.17Z"/><path class="cls-1" d="M168.21,21.69l0,17c0,1.07-.28,1.46-1.43,1.86l-2.07.71c-.15.05-.32.15-.32.31s.11.27.36.27h10.09c.28,0,.39-.13.39-.27s-.18-.27-.33-.32l-2.54-1a1,1,0,0,1-.83-1.16V21.7h4c1,0,1.31.21,1.65,1l1.23,2.94c.12.28.21.32.32.32s.25-.22.25-.41V18.78a.3.3,0,0,0-.28-.3c-.26,0-.42.19-.61.31-.78.45-.79.52-2.82.63-1,0-2.47.08-5.94.11l-2.87,0a19,19,0,0,1-3.72-.15,2.76,2.76,0,0,1-1.35-.66.61.61,0,0,0-.35-.17c-.14,0-.29.11-.29.37v6.64c0,.31.16.42.32.42a.4.4,0,0,0,.34-.28l1.3-3.21a1.23,1.23,0,0,1,1.33-.77Z"/><path class="cls-4" d="M193.94,81.7l5.21-8.23-2.92.17a51,51,0,0,1-6,8.38c-1.86,2-3.37,3-4.53,3a.63.63,0,0,1-.49-.23.75.75,0,0,1-.21-.55c0-.46.61-1.67,1.84-3.64l.28-.44,4.29-6.71-3.11.17q-2.76,2.89-4.13,4.45a7.51,7.51,0,0,0-1.38,1.84s0,.06.06.09a.36.36,0,0,0,.15,0c.15,0,.65-.49,1.5-1.46s1.65-1.84,2.44-2.6l-.32.46c-2.14,3.19-3.19,5.36-3.19,6.5a2.87,2.87,0,0,0,.66,2,2.25,2.25,0,0,0,1.74.74,4.53,4.53,0,0,0,2.47-1.1,20.82,20.82,0,0,0,3.19-3.09c-.06.28-.1.53-.13.72s0,.38,0,.53a3.57,3.57,0,0,0,.57,2.12,1.67,1.67,0,0,0,1.46.83,4.06,4.06,0,0,0,2.06-1,29.59,29.59,0,0,0,3.24-3c.72-.74,1.18-1.25,1.4-1.52a1.29,1.29,0,0,0,.3-.61.18.18,0,0,0-.06-.13.66.66,0,0,0-.19,0c-.15,0-.42.25-.82.74s-.81.93-1.17,1.29a33,33,0,0,1-3,2.82,3.3,3.3,0,0,1-1.69.89.58.58,0,0,1-.51-.21.88.88,0,0,1-.17-.57,6.32,6.32,0,0,1,1.14-2.45Z"/><path class="cls-1" d="M116.91,31.52h4.61c.82,0,1.09.19,1.38.84l1,2.15a.43.43,0,0,0,.36.29c.17,0,.33-.14.33-.42V27.61c0-.33-.15-.45-.32-.45a.47.47,0,0,0-.36.25l-.69,1.1c-.3.48-.7.81-2.16.81h-4.12V21.64c.58,0,1.17,0,1.75,0h.93c1.06,0,2.12-.05,3.18,0a1.53,1.53,0,0,1,1.6,1.11l.78,1.7c.08.17.2.42.42.42s.3-.12.3-.43l0-5.38c-1.46.19-5.25.45-7.77.45H110.4c-.33,0-.47.15-.47.32a.38.38,0,0,0,.29.33l2.26.81a1.27,1.27,0,0,1,1,1.16c.12.55.21,2.6.24,10.3,0,1.17,0,2.35,0,3.52,0,.63,0,1.25,0,1.88,0,.28,0,.56,0,.84a1.73,1.73,0,0,1-1.29,1.81l-2.06.73c-.17.06-.39.16-.39.35s.07.28.57.28h15c.68,0,1.06-.29,1.09-1.2l.11-3.85c0-.39-.14-.48-.29-.48s-.28.2-.36.36l-.9,1.89a1.89,1.89,0,0,1-2,1.2h-5.28c-.64,0-.94-.31-.94-.92Z"/><path class="cls-4" d="M184.58,59l-3,.38L176,68.87a68.8,68.8,0,0,1-7,9.86,5.51,5.51,0,0,0-.87,1.19.18.18,0,0,0,0,.13.29.29,0,0,0,.17,0c.11,0,.3-.17.61-.53.15-.15.26-.28.34-.38l1-1.16,0,.08a13.93,13.93,0,0,0-1.65,4.81,2.9,2.9,0,0,0,.68,2,2.37,2.37,0,0,0,1.84.74,7.15,7.15,0,0,0,3.34-.91,12.39,12.39,0,0,0,3.33-2.58l.42,0a4.36,4.36,0,0,0,.59,0,5,5,0,0,0,2.31-.57,6.91,6.91,0,0,0,2.1-1.67l.49-.57s0,0,0-.06v-.15a.4.4,0,0,0,0-.19.12.12,0,0,0-.13-.06.46.46,0,0,0-.17,0,.21.21,0,0,0-.13.1l-.61.64a7.79,7.79,0,0,1-1.8,1.38,3.7,3.7,0,0,1-1.71.53,2.06,2.06,0,0,1-.4-.07l-.34-.06a17,17,0,0,0,2-3.47,8,8,0,0,0,.7-3,2.39,2.39,0,0,0-.32-1.34,1.09,1.09,0,0,0-.93-.44c-.87,0-1.38.89-1.53,2.65-.06.78-.15,1.42-.21,1.86A9.7,9.7,0,0,1,175.8,83,5.73,5.73,0,0,1,171.57,85a1.9,1.9,0,0,1-1-.19.71.71,0,0,1-.3-.64,5,5,0,0,1,.63-1.82c.4-.83,1.38-2.52,2.88-5.08Z"/><path class="cls-1" d="M206.6,41.54c0,.13.1.3.45.3l14.25,0a1.1,1.1,0,0,0,1.25-1.19l.19-3.93c0-.41-.13-.52-.32-.52s-.32.22-.42.38l-1.28,2.29a1.71,1.71,0,0,1-.74.71,4.1,4.1,0,0,1-2,.27c-.82,0-1.67,0-2,0-2.24,0-2.49-.54-2.49-1.31v-16c0-.93.22-1.16.74-1.35l2.62-1a.44.44,0,0,0,.33-.39c0-.19-.21-.29-.39-.29h-9.71c-.38,0-.51.17-.51.33s.18.3.35.36l2.4.84c.5.17.63.3.68.94,0,.49.06,1.07.17,4.15q.07,3.65.12,7.31c0,1.43-.09,2.86-.09,4.29,0,.35,0,.71,0,1.06-.1,1.12-.38,1.35-.94,1.56l-2.36.87C206.78,41.27,206.6,41.37,206.6,41.54Z"/><path class="cls-4" d="M141.19,76c-.11.19-.28.44-.51.8-2,3-3,5.08-3,6.19a2.85,2.85,0,0,0,.66,2,2.16,2.16,0,0,0,1.69.74,3.6,3.6,0,0,0,2-.78,27.21,27.21,0,0,0,3.3-3c.85-.87,1.4-1.46,1.63-1.76a1.41,1.41,0,0,0,.36-.64.19.19,0,0,0-.06-.15.33.33,0,0,0-.19-.06c-.13,0-.42.27-.91.8s-.76.87-1.08,1.19a26.29,26.29,0,0,1-3.2,3,3.45,3.45,0,0,1-1.88.81.66.66,0,0,1-.51-.25.87.87,0,0,1-.23-.57,3.72,3.72,0,0,1,.51-1.44,27.73,27.73,0,0,1,1.53-2.65l6.48-10.35h5l.34-.61h-5l2.77-4.43-2.82.21-2.65,4.22h-2.12l-.36.61h2.1l-1.89,2.82a33,33,0,0,1-3.6,4.24q-2.54,2.6-2.54,3a.11.11,0,0,0,0,.09.2.2,0,0,0,.13,0q.22,0,1.52-1.46C139.58,77.63,140.41,76.74,141.19,76Z"/><path class="cls-4" d="M200.59,85.47l3-.3c1.33-1.69,2.54-3.11,3.58-4.26A30.51,30.51,0,0,1,210,78.14c-.19.53-.34,1-.42,1.27a3.24,3.24,0,0,0-.13.81,1.56,1.56,0,0,0,.46,1.25,1.88,1.88,0,0,0,1.36.45,3.72,3.72,0,0,0,2.22-1c.83-.63,1.23-1.12,1.23-1.46a.19.19,0,0,0-.06-.15l-.19-.06s-.38.34-1.12,1a3.21,3.21,0,0,1-2.18,1,1,1,0,0,1-.76-.32,1.12,1.12,0,0,1-.32-.85,3.54,3.54,0,0,1,.43-1.73A4.47,4.47,0,0,1,211.89,77l.66-.49c1.67-1.25,2.52-2.12,2.52-2.61a.62.62,0,0,0-.28-.5,1.31,1.31,0,0,0-.72-.19,2.58,2.58,0,0,0-1.95.78,9,9,0,0,0-1.61,3c-.89.76-2.12,1.9-3.68,3.41l0,0a23.58,23.58,0,0,0,1.69-3.26,6.35,6.35,0,0,0,.38-2.12,1.93,1.93,0,0,0-.46-1.33,1.57,1.57,0,0,0-1.23-.53,3.39,3.39,0,0,0-1.95.76A25.29,25.29,0,0,0,202,77l-1.38,1.5c-.4.44-.66.78-.8,1a1,1,0,0,0-.19.47.11.11,0,0,0,.07.11.18.18,0,0,0,.15.06c.15,0,.48-.3,1-.91s.76-.89,1.06-1.21a34.17,34.17,0,0,1,3.28-3.2,3.24,3.24,0,0,1,1.8-.89.7.7,0,0,1,.47.13.67.67,0,0,1,.13.44,6.23,6.23,0,0,1-1.21,2.33l-.17.28Z"/><path class="cls-1" d="M178.76,52c4.43,4.35,6.15,6.2,8.47,8.84h1.25V50.72c0-.24.06-.34.36-.46l1.57-.6a.16.16,0,0,0,.12-.14c0-.06-.05-.13-.2-.13h-5.07a.15.15,0,0,0-.16.14c0,.08.09.16.16.18l1,.34c.59.2.74.4.74,1V58c-.64-.61-.68-.64-2.18-2.11l-1.1-1.09c-.75-.78-1.5-1.57-2.26-2.34q-1.54-1.66-3.06-3.33h-1.3c.07,2.19.15,4.39.15,6.58,0,1,0,1.73,0,2.51,0,1.21-.11,1.23-.16,1.3a.7.7,0,0,1-.4.28l-1.32.46c-.08,0-.16.08-.16.17s.07.15.22.15h5c.14,0,.21-.07.21-.15s-.09-.14-.17-.17l-1.35-.54c-.22-.09-.31-.18-.31-.57Z"/><path class="cls-1" d="M112.83,59.83a5.16,5.16,0,0,1-1.67-.33,5.07,5.07,0,0,1-3.23-4.7,4.52,4.52,0,0,1,4.76-4.49,5,5,0,0,1,3.5,1.39,4.82,4.82,0,0,1,1.54,3.5A4.52,4.52,0,0,1,115,59.45,5.37,5.37,0,0,1,112.83,59.83ZM112.61,61a7.38,7.38,0,0,0,5-1.88A5.81,5.81,0,0,0,119.49,55a5.72,5.72,0,0,0-2.17-4.35A6.57,6.57,0,0,0,113,49.11a7.62,7.62,0,0,0-4.78,1.58A5.18,5.18,0,0,0,106.15,55,6.15,6.15,0,0,0,112.61,61Z"/><path class="cls-1" d="M168.39,59.83a5.16,5.16,0,0,1-1.67-.33,5.07,5.07,0,0,1-3.23-4.7,4.52,4.52,0,0,1,4.76-4.49,5,5,0,0,1,3.5,1.39,4.82,4.82,0,0,1,1.54,3.5,4.52,4.52,0,0,1-2.77,4.24A5.38,5.38,0,0,1,168.39,59.83ZM168.17,61a7.38,7.38,0,0,0,5-1.88A5.81,5.81,0,0,0,175,55a5.72,5.72,0,0,0-2.17-4.35,6.57,6.57,0,0,0-4.29-1.49,7.62,7.62,0,0,0-4.78,1.58A5.18,5.18,0,0,0,161.72,55,6.15,6.15,0,0,0,168.17,61Z"/><path class="cls-4" d="M150.1,80.62a13.78,13.78,0,0,1,3-4.87c1.27-1.33,2.37-2,3.32-2a.71.71,0,0,1,.55.26.9.9,0,0,1,.21.61q0,1.62-2.07,3.5A10.65,10.65,0,0,1,150.1,80.62Zm-2.35-1.44a8.59,8.59,0,0,0-.19.93,6.65,6.65,0,0,0-.06.89,5.17,5.17,0,0,0,1,3.34,3.21,3.21,0,0,0,2.65,1.34,5.59,5.59,0,0,0,2.77-.83,17.47,17.47,0,0,0,3.35-2.73c.93-1,1.52-1.61,1.8-1.93a1.4,1.4,0,0,0,.4-.68.18.18,0,0,0-.06-.15.33.33,0,0,0-.19-.06c-.11,0-.45.3-1,.91s-1.06,1.16-1.55,1.65a16.51,16.51,0,0,1-3,2.43,4.66,4.66,0,0,1-2.35.74,1.55,1.55,0,0,1-1.27-.53,2.14,2.14,0,0,1-.46-1.48c0-.15,0-.36,0-.59s.08-.61.17-1.14a17.94,17.94,0,0,0,6.35-2.58c1.59-1.12,2.37-2.27,2.37-3.47a1.83,1.83,0,0,0-.66-1.46,2.66,2.66,0,0,0-1.74-.55,7.76,7.76,0,0,0-3.87,1.16,16.89,16.89,0,0,0-4,3.34c-.53.57-1,1.06-1.25,1.42a2.06,2.06,0,0,0-.45.72.19.19,0,0,0,0,.13.45.45,0,0,0,.17,0,.59.59,0,0,0,.38-.21A4.35,4.35,0,0,0,147.75,79.18Z"/><path class="cls-1" d="M195.53,55.14l1.3-3.14,1.33,3.14Zm-.43,1.14h3.53l1.22,3a.54.54,0,0,1,0,.21.39.39,0,0,1-.26.37l-1.16.47c-.06,0-.12.07-.12.13s.05.13.17.13h4.74c.18,0,.23-.07.23-.14s-.08-.14-.16-.17l-1-.41c-.41-.17-.54-.39-1-1.51l-.36-.8c-.15-.33-.28-.7-.43-1s-.39-.84-.58-1.28c-1.13-2.58-1.65-3.95-2.32-5.93h-1.29c-.7,2.08-.91,2.67-1.58,4.39-.78,2-1.63,4-2,4.79s-.46,1.11-.85,1.28l-1.17.51c-.06,0-.14.08-.14.15s.05.13.18.13h4.47c.16,0,.21-.08.21-.14s-.1-.13-.18-.16l-1.13-.49c-.18-.08-.22-.16-.22-.26a.56.56,0,0,1,0-.2Z"/><path class="cls-4" d="M164.39,74.29c0,.44,0,.79.06,1s0,.44,0,.61A13.4,13.4,0,0,1,163,82.27c-1,1.8-2,2.71-2.94,2.71a.75.75,0,0,1-.47-.13.37.37,0,0,1-.19-.34,2,2,0,0,1,.28-.87,2.23,2.23,0,0,0,.26-.79.79.79,0,0,0-.26-.59,1,1,0,0,0-.65-.23,1.28,1.28,0,0,0-.93.42,1.34,1.34,0,0,0-.4,1,2,2,0,0,0,.81,1.63,3.45,3.45,0,0,0,2.14.61,5.6,5.6,0,0,0,2.92-.89,18.35,18.35,0,0,0,3.66-3.18c.62-.65,1.06-1.12,1.32-1.44a1.44,1.44,0,0,0,.38-.66.18.18,0,0,0-.06-.15.33.33,0,0,0-.19-.06,5.8,5.8,0,0,0-1.29,1.25c-.76.85-1.48,1.61-2.14,2.27a7,7,0,0,0,.43-1.27,6.47,6.47,0,0,0,.13-1.29,12.07,12.07,0,0,0-.4-2.58,12.24,12.24,0,0,1-.4-2.56c0-.78.25-1.27.79-1.46l.3-.1a1.83,1.83,0,0,0,.7-.49.85.85,0,0,0,.21-.59.8.8,0,0,0-.21-.61.9.9,0,0,0-.66-.21,1.33,1.33,0,0,0-1,.45,4.53,4.53,0,0,0-.83,1.37l-2.22,2.39c-2.26,2.47-3.41,3.83-3.41,4.06a.11.11,0,0,0,.06.11.21.21,0,0,0,.15.06c.17,0,.84-.68,2-2.05S163.27,75.41,164.39,74.29Z"/><path class="cls-1" d="M99.3,54.69V51.06c0-.45.21-.69.88-.69a2.31,2.31,0,0,1,2.4,2.1,2.09,2.09,0,0,1-1.12,1.85,3.32,3.32,0,0,1-1.7.4Zm2,.9a3.79,3.79,0,0,0,2.46-1.53,3,3,0,0,0,.46-1.58c0-1.74-1.35-3.08-3.49-3.08H96c-.19,0-.26.08-.26.17s.13.16.23.2l1,.35a.72.72,0,0,1,.59.74c0,.54,0,1.08,0,1.61,0,1.17,0,2.35,0,3.52,0,.7,0,1.41,0,2.11,0,1.1,0,1.29-.15,1.45a.84.84,0,0,1-.42.28l-1.12.4c-.09,0-.22.07-.22.17s0,.15.27.15h4.94c.17,0,.22-.06.22-.13s-.08-.13-.15-.16l-1.31-.51c-.33-.13-.38-.21-.39-.56V56c0-.14.05-.16.1-.16a.14.14,0,0,1,.09.05l3.68,3.72a3.74,3.74,0,0,0,1.35,1,3.2,3.2,0,0,0,1.22.23c1,0,1.09-.27,1.09-.32a.21.21,0,0,0-.14-.18,5,5,0,0,1-2.29-1.59Z"/><path class="cls-4" d="M131.64,76c-.11.19-.28.44-.51.8-2,3-3,5.08-3,6.19a2.87,2.87,0,0,0,.66,2,2.16,2.16,0,0,0,1.69.74,3.59,3.59,0,0,0,2-.78,27,27,0,0,0,3.3-3c.85-.87,1.4-1.46,1.63-1.76a1.41,1.41,0,0,0,.36-.64.18.18,0,0,0-.06-.15.33.33,0,0,0-.19-.06c-.15,0-.49.32-1.06,1-.38.42-.7.76-.93,1a24.81,24.81,0,0,1-3.11,2.92,3.65,3.65,0,0,1-2,.87.65.65,0,0,1-.51-.25.86.86,0,0,1-.23-.57,2.83,2.83,0,0,1,.38-1.16c.23-.48.83-1.46,1.74-2.92l4.29-6.75-3.11.21c-1.76,1.8-3.11,3.26-4.06,4.36a7.55,7.55,0,0,0-1.44,1.93.12.12,0,0,0,0,.09.2.2,0,0,0,.13,0c.15,0,.65-.49,1.52-1.46S130.86,76.74,131.64,76Z"/><path class="cls-1" d="M90,54.95V51.09c0-.42.2-.68.93-.68a2.92,2.92,0,0,1,2.18.93,2.29,2.29,0,0,1,.51,1.47A2.37,2.37,0,0,1,91,55.13,3.08,3.08,0,0,1,90,54.95Zm0,1.15a5.75,5.75,0,0,0,1.12.11A4.34,4.34,0,0,0,94.38,55a3.23,3.23,0,0,0,.95-2.32c0-1.21-.79-3.33-4.55-3.33-.77,0-1.54.09-2.31.09H86.69c-.24,0-.27.07-.27.15s.16.18.27.22l1.06.39a.75.75,0,0,1,.55.81c0,1.45.05,2.9.07,4.35,0,1.62,0,2.81,0,3.22,0,.86-.12.94-.19,1a.66.66,0,0,1-.33.25l-1.22.45c-.07,0-.14.07-.14.15s.06.14.21.14h5c.18,0,.23-.08.23-.15s-.08-.13-.15-.16l-1.3-.5c-.37-.14-.43-.21-.43-.62Z"/><path class="cls-1" d="M132,55.41h2.35c.42,0,.56.09.7.42l.49,1.07a.22.22,0,0,0,.18.14c.09,0,.17-.07.17-.21V53.46c0-.17-.07-.22-.16-.22a.24.24,0,0,0-.18.13l-.35.55c-.15.24-.36.41-1.1.4H132V50.47c.3,0,.6,0,.89,0h.48c.54,0,1.08,0,1.62,0a.78.78,0,0,1,.82.56l.4.85c0,.08.1.21.21.21s.15-.06.15-.21V49.17c-.75.09-2.68.22-4,.22h-3.92c-.17,0-.24.07-.24.16a.19.19,0,0,0,.15.17l1.15.4a.64.64,0,0,1,.5.58,48.37,48.37,0,0,1,.12,5.15c0,.59,0,1.17,0,1.76,0,.32,0,.63,0,.94,0,.14,0,.28,0,.42a.87.87,0,0,1-.66.9l-1,.36c-.09,0-.2.08-.2.17s0,.14.29.14h7.65c.35,0,.54-.15.56-.6L137,58c0-.19-.07-.24-.15-.24s-.14.1-.18.18l-.46.94a1,1,0,0,1-1,.6H132.5c-.33,0-.48-.16-.48-.46Z"/><path class="cls-4" d="M162.35,69.28l1.29-.15a47.45,47.45,0,0,1,3-4.24c.85-1,1.42-1.56,1.7-1.56a.21.21,0,0,1,.16.06.33.33,0,0,1,0,.2,2.89,2.89,0,0,1-.53,1l-.28.41a10.55,10.55,0,0,0-1,1.67,2.85,2.85,0,0,0-.23,1.07,2.33,2.33,0,0,0,.24,1.13.71.71,0,0,0,.64.43,1.41,1.41,0,0,0,.79-.46,12.51,12.51,0,0,0,1.28-1.4l.11-.13a4.3,4.3,0,0,0,.8-1.16.11.11,0,0,0,0-.08.13.13,0,0,0-.08,0s-.16.13-.35.39-.35.48-.49.65a13.87,13.87,0,0,1-1.25,1.41c-.34.33-.59.49-.75.49a.24.24,0,0,1-.23-.11.47.47,0,0,1-.07-.29,1.78,1.78,0,0,1,.18-.66,11.94,11.94,0,0,1,.68-1.21c0-.09.12-.22.23-.38a5.13,5.13,0,0,0,.91-2.34,1.42,1.42,0,0,0-.19-.78.57.57,0,0,0-.5-.29,2,2,0,0,0-1.2.76,27.56,27.56,0,0,0-2.17,2.67,8.21,8.21,0,0,0,.57-1.32,3.73,3.73,0,0,0,.17-1.07,1.39,1.39,0,0,0-.19-.77.63.63,0,0,0-.53-.28,1.3,1.3,0,0,0-.83.39A11.78,11.78,0,0,0,163,64.91l-.59.77c-.17.23-.28.4-.34.5a.56.56,0,0,0-.08.24.08.08,0,0,0,0,.06.08.08,0,0,0,.06,0c.07,0,.21-.15.41-.46s.33-.46.45-.62a14.91,14.91,0,0,1,1.39-1.64,1.28,1.28,0,0,1,.77-.46.27.27,0,0,1,.2.06.45.45,0,0,1,.05.23,3.06,3.06,0,0,1-.47,1.13l-.12.21Z"/><path class="cls-1" d="M204.38,60.42c0,.06.05.15.23.15h7.27a.56.56,0,0,0,.64-.59l.1-2c0-.2-.07-.26-.16-.26s-.17.11-.21.19l-.66,1.15a.86.86,0,0,1-.38.35,2.16,2.16,0,0,1-1,.13h-1c-1.14,0-1.27-.27-1.27-.65v-8c0-.47.11-.58.38-.67l1.34-.49a.22.22,0,0,0,.17-.19c0-.09-.11-.15-.2-.15h-5c-.2,0-.26.08-.26.16s.09.15.18.18l1.22.42c.25.09.32.15.35.47s0,.54.09,2.08q0,1.83.06,3.66c0,.71,0,1.43,0,2.14,0,.18,0,.35,0,.53-.05.56-.19.68-.48.78l-1.21.44C204.47,60.29,204.38,60.33,204.38,60.42Z"/><path class="cls-1" d="M124.56,60.16l-1-.38c-.27-.1-.4-.2-.39-.73V55.31h2.15a.91.91,0,0,1,.58.12,1,1,0,0,1,.29.42l.52,1.07a.18.18,0,0,0,.15.13c.07,0,.13,0,.12-.2l0-3.54c0-.25-.08-.27-.16-.27s-.15.1-.2.18l-.4.63a.9.9,0,0,1-.88.41h-2.16V50.48c.29,0,1.68-.11,2.38-.11s.83.13,1,.37l.66,1.2c0,.07.09.17.18.17s.13,0,.13-.23V49.21l-1.35.11c-1.23.05-1.82.09-2.33.09h-3.94c-.14,0-.21.08-.21.16a.2.2,0,0,0,.15.16l1.14.41c.46.16.52.26.55.59,0,.13,0,.2,0,2.34,0,.39,0,.78,0,1.17,0,1.05,0,2.1,0,3.16,0,.25,0,.49,0,.74,0,1.09,0,1.55-.67,1.78l-1.08.36c-.08,0-.16.09-.16.17s.17.15.28.15h4.44Z"/><path class="cls-1" d="M147.8,60.36a9.45,9.45,0,0,0,3,.51,5.25,5.25,0,0,0,2.18-.43,3,3,0,0,0,1.77-2.74,2.59,2.59,0,0,0-.41-1.45,4.6,4.6,0,0,0-2-1.61l-1.53-.77a4.21,4.21,0,0,1-1.22-.87,1.63,1.63,0,0,1-.35-1,2,2,0,0,1,2.24-1.77c1,0,1.44.36,1.64.79l.65,1.43c0,.09.09.23.22.23s.15,0,.16-.28v-3a9.57,9.57,0,0,0-2.37-.37c-2.74,0-4.18,1.62-4.18,3.15a2.88,2.88,0,0,0,.46,1.56,4.71,4.71,0,0,0,2,1.6l1.53.78a3.16,3.16,0,0,1,1.31,1,1.39,1.39,0,0,1,.3.87,1.92,1.92,0,0,1-2.12,1.7,3.77,3.77,0,0,1-1.62-.33,1.26,1.26,0,0,1-.64-.66l-.66-1.37c0-.08-.09-.17-.18-.17s-.16,0-.16.24Z"/><path class="cls-1" d="M213.76,60.36a9.45,9.45,0,0,0,3,.51,5.25,5.25,0,0,0,2.18-.43,3,3,0,0,0,1.77-2.74,2.59,2.59,0,0,0-.41-1.45,4.6,4.6,0,0,0-2-1.61l-1.53-.77a4.22,4.22,0,0,1-1.22-.87,1.63,1.63,0,0,1-.35-1,2,2,0,0,1,2.24-1.77c1,0,1.44.36,1.64.79l.66,1.43c0,.09.09.23.22.23s.15,0,.16-.28v-3a9.61,9.61,0,0,0-2.38-.37c-2.74,0-4.18,1.62-4.18,3.15a2.88,2.88,0,0,0,.46,1.56,4.71,4.71,0,0,0,2,1.6l1.53.78a3.16,3.16,0,0,1,1.31,1,1.39,1.39,0,0,1,.3.87,1.92,1.92,0,0,1-2.12,1.7,3.77,3.77,0,0,1-1.62-.33,1.26,1.26,0,0,1-.64-.66l-.66-1.37c0-.08-.09-.17-.18-.17s-.16,0-.16.24Z"/><path class="cls-1" d="M138.93,60.36a9.45,9.45,0,0,0,3,.51,5.25,5.25,0,0,0,2.18-.43,3,3,0,0,0,1.77-2.74,2.59,2.59,0,0,0-.41-1.45,4.6,4.6,0,0,0-2-1.61l-1.53-.77a4.22,4.22,0,0,1-1.22-.87,1.63,1.63,0,0,1-.35-1,2,2,0,0,1,2.24-1.77c1,0,1.44.36,1.64.79l.66,1.43c0,.09.09.23.22.23s.15,0,.16-.28v-3a9.61,9.61,0,0,0-2.37-.37c-2.74,0-4.18,1.62-4.18,3.15a2.88,2.88,0,0,0,.46,1.56,4.71,4.71,0,0,0,2,1.6l1.53.78a3.16,3.16,0,0,1,1.31,1,1.39,1.39,0,0,1,.3.87,1.92,1.92,0,0,1-2.12,1.7,3.77,3.77,0,0,1-1.62-.33,1.26,1.26,0,0,1-.64-.66l-.66-1.37c0-.08-.09-.17-.18-.17s-.16,0-.16.24Z"/><path class="cls-4" d="M157,68.22a4.66,4.66,0,0,1,.27-1.43,8.14,8.14,0,0,1,.75-1.66,6.47,6.47,0,0,1,1-1.36,1.35,1.35,0,0,1,.88-.44.6.6,0,0,1,.52.29,1.67,1.67,0,0,1,.18.83,4.32,4.32,0,0,1-.35,1.59,6.72,6.72,0,0,1-1,1.66,5.23,5.23,0,0,1-.95,1,1.45,1.45,0,0,1-.8.37.47.47,0,0,1-.42-.2A1,1,0,0,1,157,68.22Zm3.1-1a8.57,8.57,0,0,0,.77-1.48,3.6,3.6,0,0,0,.24-1.21,1.89,1.89,0,0,0-.34-1.18,1.11,1.11,0,0,0-.93-.43,2.78,2.78,0,0,0-1.56.61,8.14,8.14,0,0,0-1.68,1.7c-.32.42-.52.72-.62.86a.72.72,0,0,0-.14.28.09.09,0,0,0,0,.06l.07,0a.26.26,0,0,0,.17-.11,1.82,1.82,0,0,0,.24-.34c0,.21-.08.4-.11.56a2.51,2.51,0,0,0,0,.45,3.64,3.64,0,0,0,.33,1.72,1,1,0,0,0,.91.59,2,2,0,0,0,1.15-.46,6.87,6.87,0,0,0,1.29-1.33l.17,0a1,1,0,0,0,.24,0,1.92,1.92,0,0,0,1-.31,2.79,2.79,0,0,0,.87-.85l.21-.29,0,0v-.08a.28.28,0,0,0,0-.09.05.05,0,0,0-.06,0l-.08,0-.07,0-.23.34a3.18,3.18,0,0,1-.76.71,1.46,1.46,0,0,1-.77.27.58.58,0,0,1-.22,0Z"/><path class="cls-1" d="M155.92,60.42a.16.16,0,0,0,.17.14h5.05c.12,0,.18-.07.18-.13s-.07-.12-.14-.15l-1.3-.49a.53.53,0,0,1-.42-.58l0-8.39a.51.51,0,0,1,.38-.57l1.3-.52c.08,0,.17-.08.17-.17s-.07-.15-.22-.15H156.2c-.2,0-.25.08-.25.16a.2.2,0,0,0,.14.17l1.26.45c.24.09.38.2.41.71s.07,1.43.1,3c0,2.2,0,3.09-.06,4.45,0,.26,0,.5,0,.77a.7.7,0,0,1-.5.71l-1.22.44A.17.17,0,0,0,155.92,60.42Z"/><path class="cls-4" d="M137,66.6a1.25,1.25,0,0,0,.36.91,1.16,1.16,0,0,0,.87.36,1.54,1.54,0,0,0,1.18-.63,2,2,0,0,0,.53-1.33,1.34,1.34,0,0,0-.32-.91,1.08,1.08,0,0,0-.85-.34,1.61,1.61,0,0,0-1.2.61A2,2,0,0,0,137,66.6Z"/></svg>