<svg id="Layer_1" data-name="Layer 1" xmlns="http://www.w3.org/2000/svg" width="352" height="388" viewBox="0 0 352 388"><defs><style>.cls-1{fill:#433e3f;}.cls-1,.cls-2,.cls-3,.cls-4{fill-rule:evenodd;}.cls-2{fill:#855752;}.cls-3{fill:#89807e;}.cls-4{fill:#eef0ef;}</style></defs><title>Artboard 1</title><polygon class="cls-1" points="102.66 103.49 179.48 205.86 256.31 103.49 179.48 1 102.66 103.49"/><polygon class="cls-2" points="109.31 103.49 179.48 9.86 249.67 103.49 179.48 197.01 109.31 103.49"/><polygon class="cls-1" points="111.52 103.49 179.48 194.06 247.45 103.49 179.48 12.81 111.52 103.49"/><path class="cls-3" d="M57.16,323.17a37.07,37.07,0,0,1,6.31-11.57c2.38-2.79,4.7-4.19,7-4.19a2.25,2.25,0,0,1,1.76.93,3.26,3.26,0,0,1,.77,2.12q0,3.8-4.65,7.76A22.39,22.39,0,0,1,57.16,323.17Zm68.07-10.36a9.46,9.46,0,0,1,1.91.86,5.73,5.73,0,0,0,2.74.93,4,4,0,0,0,2.89-1.24,3.82,3.82,0,0,0,1.24-2.9,3.88,3.88,0,0,0-3.92-3.88,5,5,0,0,0-1.32.19l3-5.19-6,.81-6.66,11.41q-6.46,6.57-20.47,23.89-13,16.13-22,25.69A136,136,0,0,1,60,378.62q16.67-22.24,23.83-46.35l.21-.73a100.21,100.21,0,0,1,3.67-10.28A28.24,28.24,0,0,1,91.17,315a35.46,35.46,0,0,1,2.64-2.83q2.64-2.64,2.64-4a2,2,0,0,0-.31-1.24,1.32,1.32,0,0,0-1-.42c-1.14,0-2.58,1.34-4.34,4a42.44,42.44,0,0,1-3,4.14c-.36.47-2.37,2.59-5.94,6.45S75,328.7,72.1,332.27c-1.86,2.32-4.7,5.94-8.47,10.9Q45.8,366.42,33.25,377.48a159.8,159.8,0,0,0,14.52-25.42,145.24,145.24,0,0,0,8.88-27.18,27.66,27.66,0,0,0,12.61-5.79c3.46-2.9,5.16-5.79,5.16-8.64a4.72,4.72,0,0,0-1.24-3.36,4.43,4.43,0,0,0-3.31-1.29c-2.84,0-5.94,1.5-9.35,4.55a46.07,46.07,0,0,0-9.41,12.3c-1.54-.41-3.1-2.43-4.7-6.09-.36-.84-.62-1.45-.77-1.86a17.15,17.15,0,0,0-5-6.88,11.79,11.79,0,0,0-7.13-2.12,31.29,31.29,0,0,0-12.3,2.74A37.88,37.88,0,0,0,9.79,316a28.74,28.74,0,0,0-6.46,8.84A22.76,22.76,0,0,0,1,334.69a12.81,12.81,0,0,0,3.46,9.36,11.71,11.71,0,0,0,8.89,3.56c5.79,0,10.8-2.68,15-8.11a29.52,29.52,0,0,0,6.31-18.65,4.38,4.38,0,0,0-.21-1.5c-.16-.41-.26-.62-.41-.62-.36,0-.88,1.13-1.5,3.36A31.38,31.38,0,0,1,30.3,328a31.62,31.62,0,0,1-8.78,11.38q-5.27,4.18-10.7,4.18a7.55,7.55,0,0,1-5.94-2.64,9.88,9.88,0,0,1-2.32-6.77A21.3,21.3,0,0,1,5.29,324a31.37,31.37,0,0,1,7.65-9,34.2,34.2,0,0,1,8.42-5.11A22.14,22.14,0,0,1,29.58,308c2.53,0,4.91,2,7.08,6a37.77,37.77,0,0,0,2.64,4.34,16.12,16.12,0,0,0,5,4.75,12.21,12.21,0,0,0,5.94,1.61c-2.22,4.7-4.91,12.09-8,22.27s-5.87,17.77-8.31,22.78a69.37,69.37,0,0,1-5.06,8.74c-1.91,2.79-2.9,4.44-2.9,4.91a.86.86,0,0,0,.26.62.84.84,0,0,0,.57.25c.83,0,2.95-1.49,6.31-4.5s7.33-6.82,11.82-11.57q7.44-8,19-23.2T81.09,323.9a184.07,184.07,0,0,0-11.94,26.67c-3.88,10.54-6.4,17.05-7.65,19.59a54.2,54.2,0,0,1-5.06,8.32c-2,2.73-3,4.44-3,5a1.3,1.3,0,0,0,.36.72.83.83,0,0,0,.52.26c1.29,0,5.21-2.89,11.72-8.74a224.69,224.69,0,0,0,20.52-21.13c4.5-5.12,10.23-12,17.31-20.67q6.44-7.93,11-12.87l-1,1.65a102.59,102.59,0,0,1-11.75,16.37c-4.26,4.8-6.38,7.2-6.38,7.24a.35.35,0,0,0,.09.27,1,1,0,0,0,.45.09,2.1,2.1,0,0,0,.81-.5,11.75,11.75,0,0,0,1.31-1.27l7.41-8-13.33,21.3,5.65-.64a204.81,204.81,0,0,1,15.19-17.68c4.3-4.34,7.2-6.52,8.59-6.52a1.3,1.3,0,0,1,.77.23,1.94,1.94,0,0,1,.27.9c0,.72-.91,2.17-2.67,4.39-.59.72-1.08,1.32-1.4,1.72a41.72,41.72,0,0,0-4.8,7A10,10,0,0,0,113,352a8.49,8.49,0,0,0,1.22,4.75,3.73,3.73,0,0,0,3.22,1.81c.9,0,2.21-.64,3.93-1.94a57.5,57.5,0,0,0,6.42-5.84c1.9-1.94,3.12-3.26,3.66-3.93a2.94,2.94,0,0,0,.81-1.45.39.39,0,0,0-.13-.31.51.51,0,0,0-.36-.13c-.23,0-.81.54-1.76,1.63s-1.76,2-2.49,2.71a61,61,0,0,1-6.24,5.88c-1.71,1.36-3,2-3.75,2a1.35,1.35,0,0,1-1.13-.45,1.91,1.91,0,0,1-.35-1.23,6.4,6.4,0,0,1,.91-2.71,51.05,51.05,0,0,1,3.34-5.07c.28-.36.64-.9,1.13-1.58,3.07-4.16,4.61-7.42,4.61-9.72a5.4,5.4,0,0,0-.94-3.3,3,3,0,0,0-2.54-1.26c-1.44,0-3.34,1-5.73,3a145.48,145.48,0,0,0-11.22,11.4Z"/><path class="cls-4" d="M137.4,129.12l-19.24-25.63,61.32-81.82,35.91,47.91-1.63,1L212,71.79l-1.12-.4a31.28,31.28,0,0,0-7.83-2l-2.58-.15-1.28-1.47a23.85,23.85,0,0,0-9.67-6.21,29.07,29.07,0,0,0-6.61-1.33c-4.35-.24-6-.23-14.62.72-3.46.38-8.58.91-10.41.17a5.94,5.94,0,0,0-3.85-.33,2.6,2.6,0,0,0,.46,4.56l1.84,1a10.57,10.57,0,0,1,1.56,1.28l-1.28.49A35.59,35.59,0,0,0,145.65,75a31.51,31.51,0,0,0-8.8,13.87l-.43,1.59c-.28,1,1.37,1,1.73,0l.52-1.49a32.34,32.34,0,0,1,8.63-12.67,29.11,29.11,0,0,1,10.88-6.44l1.39-.22a3.2,3.2,0,0,1,.46,1,4.91,4.91,0,0,1,.15,1.26l0,7.17-.91.75a32.78,32.78,0,0,0-3,2.18,29.62,29.62,0,0,0-4.08,3.78A33.73,33.73,0,0,0,147.83,92a30.11,30.11,0,0,0-3.3,8.42,14.75,14.75,0,0,0,0,6.32,11.23,11.23,0,0,0,6.95,8.07,14.75,14.75,0,0,0,7.31.87l1.42-.42v6l.08,15.26-.71.56c-3.62,2.18-7.07,2.87-10.38,2.12a9.47,9.47,0,0,1-2.5-1l-.93-.52a2.08,2.08,0,0,1-.63-2.47c.57-2.27,2.06-2.79,1.76-4.35a5.27,5.27,0,0,0-3.3-4.25c-2.17-.81-5.36-.2-5.94,1.82Z"/><path class="cls-4" d="M226.33,84.17l14.48,19.32L179.48,185.2l-31.87-42.47-1.73-2.29,1.62.38a14.23,14.23,0,0,0,7.24-.21,36.72,36.72,0,0,0,4.64-1.65l.86-.65v2.36c0,1.8-.56,3.73-2.4,4.21l-2.19.57c-1.06.27-2.31.66-2.43,1.87s.41,2.28,1,2.28h8.72c2,0,5.06.06,9.07.11l7.6.22A25.17,25.17,0,0,0,190.51,147c3.49-1.89,6.82-5.33,9.16-8.22,6.55-8.07,8.94-18.41,9.67-28.62l.11-1.53,2.13-.32a27.3,27.3,0,0,0,6-1.72,19.88,19.88,0,0,0,8.4-6.78c2.37-3.59,2.56-8.3,1.42-12.15Z"/><path class="cls-1" d="M148.64,228.39c18.53,18.57,25.73,26.51,35.44,37.77h5.23l0-43.28c0-1,.25-1.46,1.51-2l6.58-2.57a.68.68,0,0,0,.49-.6c0-.26-.2-.55-.84-.55h-21.2a.62.62,0,0,0-.65.59,1,1,0,0,0,.68.78l4.2,1.45c2.47.86,3.1,1.7,3.1,4.24V253.9c-2.69-2.62-2.83-2.75-9.12-9l-4.6-4.66q-4.72-5-9.47-10-6.44-7.09-12.81-14.23H141.8c.29,9.37.62,18.73.64,28.1,0,4.3-.07,7.39-.13,10.7-.11,5.19-.47,5.27-.66,5.55a3,3,0,0,1-1.65,1.23l-5.53,2c-.33.12-.66.36-.66.7s.27.66.92.66h20.79c.56,0,.88-.31.88-.64s-.4-.58-.73-.7l-5.66-2.3c-.91-.36-1.31-.78-1.31-2.41Z"/><path class="cls-1" d="M262.65,241.77l5.41-13.43,5.54,13.43Zm-1.82,4.86h14.78l5.12,12.7a2.56,2.56,0,0,1,.18.88,1.65,1.65,0,0,1-1.1,1.57l-4.87,2a.68.68,0,0,0-.5.57c0,.24.2.54.73.54l19.82,0c.77,0,1-.29,1-.6s-.35-.58-.67-.72l-4.2-1.74c-1.71-.72-2.28-1.66-4.37-6.44L285.24,252c-.63-1.41-1.16-3-1.8-4.4-.77-1.87-1.64-3.58-2.41-5.44-4.72-11-6.9-16.86-9.72-25.34h-5.39c-2.93,8.89-3.82,11.41-6.61,18.78-3.27,8.38-6.83,16.89-8.4,20.46-1.77,4.08-1.92,4.75-3.56,5.48l-4.9,2.17c-.27.13-.59.33-.59.64s.22.56.77.56h18.7c.65,0,.87-.33.87-.6s-.44-.55-.76-.69l-4.73-2.08c-.76-.34-.9-.69-.9-1.1a2.57,2.57,0,0,1,.19-.83Z"/><path class="cls-1" d="M63.56,260.58a33.21,33.21,0,0,1-5.8-.51c-1.35-.31-1.85-.95-1.85-2.18l-.08-33.5c0-1.39.4-2,2.15-2.43a26.62,26.62,0,0,1,6.14-.63c12.73,0,21.77,9.07,21.77,19.91s-8.38,19.35-21.18,19.35ZM41.15,264.3c0,.3.06.63,1.44.63h21c7.33,0,12.13-1.26,17.21-3.86,5.52-3.54,8.5-7.24,10.42-11.8a23.65,23.65,0,0,0,1.74-8.92c0-9.17-6.13-18-16.06-21.64-3.28-1.2-6.65-1.93-13.18-1.93-2.18,0-4.28.16-6.46.24s-4.26.2-6.37.24l-8.76,0c-.71,0-1,.41-1,.76s.42.66.79.79l4.28,1.55A3.78,3.78,0,0,1,48,221.59c.74.94.74,2.17.89,5.7.11,1.87.37,10,.37,16.59,0,1.84,0,3.58-.37,11.47-.06.94-.07,1.89-.17,2.84-.19,1.78-.19,3-2.25,3.7l-4.43,1.53C41.63,263.57,41.15,263.81,41.15,264.3Z"/><path class="cls-3" d="M321.12,354.08a16.92,16.92,0,0,1,1.45-6,34.58,34.58,0,0,1,4-7.15,26.45,26.45,0,0,1,5.28-5.56,8.49,8.49,0,0,1,4.93-1.95,3.09,3.09,0,0,1,2.17.82,2.78,2.78,0,0,1,.86,2.08,14.91,14.91,0,0,1-2,6.74,40.68,40.68,0,0,1-5.84,8,27.84,27.84,0,0,1-4.74,4.3,7.31,7.31,0,0,1-3.85,1.54,2,2,0,0,1-1.63-.77A3.29,3.29,0,0,1,321.12,354.08Zm8.14,7.77c-4.29,8.64-7.87,14.88-10.76,18.63s-5.47,5.6-7.78,5.6a2.58,2.58,0,0,1-2-.77,3.55,3.55,0,0,1-.68-2.35c0-2.76,1.86-6,5.57-9.68S322.53,365.74,329.26,361.85Zm11.67-23.51a6.17,6.17,0,0,0,.27-1.09,6,6,0,0,0,.09-.95,4,4,0,0,0-1.31-3.12,5.3,5.3,0,0,0-3.57-1.18,16.74,16.74,0,0,0-8,2.35,38.1,38.1,0,0,0-8.73,6.74c-1.31,1.36-2.4,2.48-3.17,3.44a5.56,5.56,0,0,0-1.18,1.76.38.38,0,0,0,.08.27,1,1,0,0,0,.46.09,1.42,1.42,0,0,0,.86-.5,7.5,7.5,0,0,0,1-1.31,14.59,14.59,0,0,0-.41,2.13,11.75,11.75,0,0,0-.18,2.17,14,14,0,0,0,1.45,6.91,4.32,4.32,0,0,0,3.89,2.54,9.72,9.72,0,0,0,5.48-2.13,42.28,42.28,0,0,0,7-6.74l-4.75,10.17c-8.91,5.2-15.29,9.59-19,13.11s-5.65,6.78-5.65,9.77a4.72,4.72,0,0,0,1.18,3.43,4.91,4.91,0,0,0,3.53,1.18c3.12,0,6.78-2.35,11-7s8.55-11.3,13.08-19.94a67.4,67.4,0,0,0,11.7-8.91c3.39-3.21,5.07-5.24,5.07-6.11a.65.65,0,0,0-.09-.31.51.51,0,0,0-.36-.13c-6.2,6.42-11.17,10.85-15,13.34,2.08-4,4.34-8.18,6.84-12.58s5.1-8.77,7.91-13.34l-5.65.36Z"/><path class="cls-1" d="M217.68,221.92l0,36.27c0,2.28-.59,3.13-3.05,4l-4.42,1.52c-.32.11-.67.32-.67.67s.24.57.77.57l21.56,0c.59,0,.83-.29.83-.58s-.38-.57-.71-.69l-5.43-2.1a2.24,2.24,0,0,1-1.76-2.47V221.93h8.46c2.18,0,2.8.45,3.52,2.17l2.63,6.29c.26.6.44.67.69.67.51,0,.54-.46.54-.87V215.71a.64.64,0,0,0-.6-.65c-.55,0-.89.41-1.31.66-1.66,1-1.68,1.1-6,1.34-2,.08-5.28.17-12.7.24-4.81-.07-5.3-.08-6.14-.08-6.82,0-7.52-.23-7.95-.31a5.91,5.91,0,0,1-2.88-1.41,1.31,1.31,0,0,0-.75-.36c-.3,0-.62.24-.62.79v14.19c0,.66.34.91.67.91a.85.85,0,0,0,.74-.61l2.77-6.86a2.62,2.62,0,0,1,2.84-1.65Z"/><path class="cls-3" d="M272.65,350.1l11.12-17.59-6.24.36a109,109,0,0,1-12.79,17.91c-4,4.29-7.19,6.46-9.68,6.46a1.35,1.35,0,0,1-1-.5,1.61,1.61,0,0,1-.45-1.18c0-1,1.3-3.56,3.93-7.78l.59-.95,9.17-14.33-6.65.36q-5.9,6.17-8.81,9.5c-1.95,2.26-2.95,3.57-2.95,3.93,0,.09,0,.13.13.18a.76.76,0,0,0,.33.08c.31,0,1.4-1,3.2-3.12s3.53-3.93,5.21-5.55l-.69,1c-4.56,6.82-6.82,11.44-6.82,13.89a6.12,6.12,0,0,0,1.4,4.25,4.81,4.81,0,0,0,3.71,1.58c1.4,0,3.16-.77,5.29-2.35a44.47,44.47,0,0,0,6.82-6.6c-.13.59-.22,1.13-.27,1.54s-.09.82-.09,1.13a7.63,7.63,0,0,0,1.22,4.52,3.57,3.57,0,0,0,3.12,1.76c1,0,2.45-.73,4.39-2.21a63.22,63.22,0,0,0,6.91-6.47c1.54-1.58,2.53-2.66,3-3.25a2.76,2.76,0,0,0,.64-1.31.39.39,0,0,0-.13-.28,1.41,1.41,0,0,0-.41-.09c-.32,0-.9.54-1.76,1.58s-1.72,2-2.49,2.76a70.45,70.45,0,0,1-6.42,6c-1.59,1.27-2.81,1.9-3.62,1.9a1.24,1.24,0,0,1-1.08-.45,1.87,1.87,0,0,1-.36-1.23c0-.9.81-2.66,2.44-5.24Z"/><path class="cls-4" d="M200.92,105.65l-1.83-.39-1.92-.93c-1.17-.57-2,1.06-1,1.81l1,.81a11.52,11.52,0,0,0,2.67,1.19,11.25,11.25,0,0,0,2.38.45v2.07c.05,8.56-1.83,17.14-6.56,24.35a21.87,21.87,0,0,1-14.59,10c-5,.95-8.81.73-11.48-.83-2.06-1.22-3.23-2.56-3.23-3.73v-4.6l3.79-2.17c1.82-1,7.2-5.7,10.65-9.81a113.78,113.78,0,0,0,8.49-12.19q4.36-7.05,9.42-16.58.88-1.66,1.78-3.39l.28,1.73c.31,1.93,1,5.88,1.19,7.64l.3,3.29,0,1.33Z"/><path class="cls-1" d="M108.1,242.92H118c1.75,0,2.33.41,2.94,1.79l2,4.58a.93.93,0,0,0,.77.61c.37,0,.71-.29.71-.89l0-14.46c0-.7-.32-1-.68-1a1,1,0,0,0-.77.54l-1.47,2.35c-.64,1-1.5,1.74-4.6,1.72h-8.8V221.81c1.24-.08,2.5-.1,3.74-.1h2c2.26,0,4.53-.11,6.79.07,2,.15,2.59.58,3.42,2.37l1.67,3.62c.16.36.43.9.89.9s.64-.26.64-.92l0-11.49c-3.12.4-11.22,1-16.61,1l-16.39,0c-.7,0-1,.32-1,.68a.82.82,0,0,0,.61.72l4.83,1.72a2.7,2.7,0,0,1,2.1,2.48c.26,1.17.46,5.55.51,22,0,2.51-.08,5-.08,7.53,0,1.34,0,2.68,0,4,0,.6,0,1.19,0,1.79A3.7,3.7,0,0,1,98.39,262L94,263.56c-.37.13-.84.33-.84.75s.15.6,1.21.6h32c1.46,0,2.26-.63,2.33-2.56l.23-8.23c0-.83-.3-1-.62-1s-.61.44-.77.77l-1.92,4c-.87,1.83-2,2.56-4.29,2.56H110c-1.37,0-2-.67-2-2Z"/><path class="cls-3" d="M252.66,301.59l-6.43.81L234.4,322.7a147,147,0,0,1-14.88,21.07,11.77,11.77,0,0,0-1.85,2.54.38.38,0,0,0,.08.27.61.61,0,0,0,.37.09c.23,0,.63-.36,1.31-1.13.31-.32.55-.59.72-.81l2.22-2.49-.09.18c-2.34,4.92-3.53,8.32-3.53,10.27a6.2,6.2,0,0,0,1.45,4.34,5.07,5.07,0,0,0,3.92,1.58,15.27,15.27,0,0,0,7.14-1.94,26.47,26.47,0,0,0,7.11-5.52c.27,0,.58,0,.9.09a9.31,9.31,0,0,0,1.27,0,10.57,10.57,0,0,0,4.92-1.22,14.76,14.76,0,0,0,4.48-3.57l1-1.23s0-.09.09-.13v-.32a.85.85,0,0,0-.09-.4.26.26,0,0,0-.27-.13,1,1,0,0,0-.37.09.46.46,0,0,0-.27.22l-1.3,1.36a16.65,16.65,0,0,1-3.85,2.94,7.9,7.9,0,0,1-3.66,1.13,4.39,4.39,0,0,1-.86-.14,5,5,0,0,0-.73-.13,36.21,36.21,0,0,0,4.34-7.42,17.09,17.09,0,0,0,1.5-6.5,5.11,5.11,0,0,0-.68-2.86,2.32,2.32,0,0,0-2-.95c-1.85,0-2.94,1.9-3.26,5.65-.13,1.67-.31,3-.45,4a20.71,20.71,0,0,1-5.25,11.21c-2.76,2.94-5.78,4.39-9,4.39a4.05,4.05,0,0,1-2.12-.4,1.53,1.53,0,0,1-.63-1.36,10.77,10.77,0,0,1,1.35-3.89c.86-1.76,2.94-5.38,6.15-10.85Z"/><path class="cls-1" d="M299.69,264.32c0,.28.21.63,1,.63l30.44,0a2.34,2.34,0,0,0,2.67-2.53l.41-8.4c0-.88-.28-1.11-.67-1.11s-.69.47-.89.81l-2.74,4.89a3.65,3.65,0,0,1-1.57,1.52c-.4.21-1.18.57-4.23.57-1.74,0-3.56,0-4.24-.07-4.78.09-5.32-1.16-5.32-2.79l0-34.12c0-2,.48-2.47,1.58-2.88l5.59-2.1a.94.94,0,0,0,.7-.82c0-.41-.44-.63-.84-.63H300.8c-.82,0-1.1.36-1.1.7s.39.63.74.76l5.12,1.79c1.06.36,1.34.63,1.46,2,.1,1,.12,2.29.36,8.87q.16,7.81.26,15.6c-.06,3.05-.19,6.1-.19,9.17,0,.75,0,1.51,0,2.27-.21,2.4-.8,2.89-2,3.34l-5,1.87C300.08,263.75,299.69,264,299.69,264.32Z"/><path class="cls-3" d="M160,337.85c-.23.4-.59.94-1.09,1.71-4.29,6.48-6.42,10.86-6.42,13.21a6.09,6.09,0,0,0,1.4,4.25,4.6,4.6,0,0,0,3.62,1.58,7.69,7.69,0,0,0,4.25-1.67,58.13,58.13,0,0,0,7-6.38c1.81-1.86,3-3.12,3.49-3.75a3,3,0,0,0,.76-1.36.41.41,0,0,0-.13-.31.71.71,0,0,0-.41-.13c-.27,0-.91.58-1.94,1.71-.86,1-1.63,1.86-2.3,2.54a56.16,56.16,0,0,1-6.84,6.37,7.36,7.36,0,0,1-4,1.72,1.42,1.42,0,0,1-1.09-.54,1.86,1.86,0,0,1-.5-1.23,8,8,0,0,1,1.08-3.07,59.24,59.24,0,0,1,3.26-5.66L174,324.73h10.72l.72-1.3H174.8l5.92-9.46-6,.45-5.65,9h-4.52l-.77,1.3h4.48l-4,6a70.59,70.59,0,0,1-7.69,9q-5.43,5.56-5.43,6.51a.23.23,0,0,0,.09.18.42.42,0,0,0,.28.08q.47,0,3.25-3.12C156.53,341.42,158.3,339.52,160,337.85Z"/><path class="cls-3" d="M286.84,358.16l6.47-.64c2.84-3.62,5.42-6.65,7.64-9.09a65.16,65.16,0,0,1,6.06-5.92c-.4,1.13-.72,2-.9,2.71a6.93,6.93,0,0,0-.27,1.72,3.34,3.34,0,0,0,1,2.66,4,4,0,0,0,2.9,1,8,8,0,0,0,4.74-2.08c1.76-1.35,2.62-2.39,2.62-3.12A.4.4,0,0,0,317,345a2.17,2.17,0,0,0-.4-.13s-.82.72-2.39,2.22a6.86,6.86,0,0,1-4.66,2.21,2.08,2.08,0,0,1-1.62-.67,2.4,2.4,0,0,1-.69-1.81,7.56,7.56,0,0,1,.91-3.71A9.56,9.56,0,0,1,311,340l1.4-1c3.57-2.67,5.38-4.52,5.38-5.57a1.33,1.33,0,0,0-.59-1.08,2.79,2.79,0,0,0-1.54-.4,5.51,5.51,0,0,0-4.16,1.67c-1.13,1.13-2.26,3.29-3.44,6.42-1.9,1.62-4.52,4.07-7.87,7.28l-.08.09a50.37,50.37,0,0,0,3.62-7,13.57,13.57,0,0,0,.81-4.52,4.12,4.12,0,0,0-1-2.85,3.35,3.35,0,0,0-2.63-1.13,7.25,7.25,0,0,0-4.16,1.63A54,54,0,0,0,290,340L287,343.23c-.86.95-1.4,1.67-1.71,2.08a2.1,2.1,0,0,0-.41,1,.24.24,0,0,0,.14.23.39.39,0,0,0,.31.13c.32,0,1-.63,2.08-1.94.86-1,1.62-1.91,2.26-2.58a73,73,0,0,1,7-6.83c1.58-1.27,2.85-1.91,3.84-1.91a1.5,1.5,0,0,1,1,.28,1.43,1.43,0,0,1,.27.94c0,.77-.86,2.44-2.58,5l-.36.59Z"/><path class="cls-1" d="M240.23,286.69c9.46,9.29,13.14,13.25,18.09,18.88H261l0-21.64c0-.51.13-.73.77-1l3.36-1.28a.35.35,0,0,0,.25-.3c0-.12-.11-.28-.43-.28H254.14a.31.31,0,0,0-.33.29c0,.18.18.33.35.39l2.15.73c1.26.43,1.58.85,1.58,2.12v14.82c-1.37-1.31-1.45-1.38-4.66-4.51l-2.35-2.32c-1.61-1.68-3.21-3.35-4.83-5q-3.29-3.55-6.54-7.12h-2.77c.15,4.68.32,9.37.33,14.05,0,2.15,0,3.7-.07,5.35-.06,2.59-.24,2.63-.33,2.78a1.49,1.49,0,0,1-.85.61l-2.82,1c-.17.06-.34.18-.34.36s.14.33.47.33h10.61c.29,0,.45-.15.45-.32s-.2-.29-.37-.36l-2.89-1.14c-.46-.18-.67-.39-.67-1.21Z"/><path class="cls-4" d="M167.79,112.8l3.94-2.23a34.55,34.55,0,0,0,8.65-7.91A38.14,38.14,0,0,0,187,85.47a19.86,19.86,0,0,0-.19-5.41q-.2-1.16-.42-2.07a10.35,10.35,0,0,0-3-5.53l-1-.88.88-.22c.91-.23,2.32-.45,3.38-.61a16.73,16.73,0,0,1,2.35-.13l1.31.14a7.27,7.27,0,0,1,2.91,2.66,34.28,34.28,0,0,1,4.54,9l.48,2.38-2,2.25-4,5a127.09,127.09,0,0,0-7.57,12.11l-2.28,4c-9,15.69-12.07,20.75-14.73,23.13l-1.44,1.29,0-18.94Z"/><path class="cls-1" d="M99.39,303.39a11,11,0,0,1-3.57-.7,10.82,10.82,0,0,1-6.91-10c0-5.94,4.83-9.6,10.18-9.6a10.58,10.58,0,0,1,7.47,3,10.3,10.3,0,0,1,3.3,7.48,9.66,9.66,0,0,1-5.91,9.07A11.48,11.48,0,0,1,99.39,303.39Zm-.47,2.46a15.76,15.76,0,0,0,10.73-4,12.41,12.41,0,0,0,4-8.86,12.22,12.22,0,0,0-4.64-9.29,14,14,0,0,0-9.17-3.19,16.27,16.27,0,0,0-10.21,3.38,11.07,11.07,0,0,0-4.46,9.2C85.13,300.17,91.07,305.85,98.92,305.85Z"/><path class="cls-1" d="M218.08,303.39a11,11,0,0,1-3.57-.7,10.82,10.82,0,0,1-6.9-10c0-5.94,4.83-9.6,10.18-9.6a10.58,10.58,0,0,1,7.47,3,10.3,10.3,0,0,1,3.3,7.48,9.66,9.66,0,0,1-5.91,9.07A11.48,11.48,0,0,1,218.08,303.39Zm-.47,2.46a15.76,15.76,0,0,0,10.73-4,12.41,12.41,0,0,0,4-8.86,12.22,12.22,0,0,0-4.64-9.29,14,14,0,0,0-9.17-3.19,16.27,16.27,0,0,0-10.21,3.38,11.07,11.07,0,0,0-4.46,9.2C203.82,300.17,209.76,305.85,217.61,305.85Z"/><path class="cls-3" d="M179,347.79a29.43,29.43,0,0,1,6.33-10.4c2.71-2.85,5.07-4.25,7.1-4.25a1.51,1.51,0,0,1,1.18.55,1.92,1.92,0,0,1,.45,1.3q0,3.45-4.43,7.47A22.74,22.74,0,0,1,179,347.79Zm-5-3.07a18.35,18.35,0,0,0-.41,2,14.21,14.21,0,0,0-.13,1.91,11,11,0,0,0,2.22,7.13,6.85,6.85,0,0,0,5.65,2.86,11.94,11.94,0,0,0,5.92-1.76,37.31,37.31,0,0,0,7.15-5.83c2-2,3.25-3.44,3.84-4.12a3,3,0,0,0,.86-1.45.39.39,0,0,0-.13-.31.71.71,0,0,0-.4-.13c-.23,0-1,.63-2.08,1.94s-2.27,2.49-3.31,3.53a35.27,35.27,0,0,1-6.38,5.2,10,10,0,0,1-5,1.58,3.3,3.3,0,0,1-2.71-1.13,4.58,4.58,0,0,1-1-3.17c0-.31,0-.77.09-1.27s.18-1.3.35-2.44c5.65-1.31,10.18-3.12,13.56-5.52s5.07-4.84,5.07-7.42a3.9,3.9,0,0,0-1.4-3.12A5.68,5.68,0,0,0,192,332a16.58,16.58,0,0,0-8.28,2.49,36.08,36.08,0,0,0-8.64,7.14c-1.13,1.23-2,2.27-2.66,3a4.39,4.39,0,0,0-1,1.54.4.4,0,0,0,.09.28,1,1,0,0,0,.37.08,1.26,1.26,0,0,0,.81-.45A9.3,9.3,0,0,0,174,344.72Z"/><path class="cls-1" d="M276,293.38l2.77-6.72,2.83,6.72Zm-.93,2.43h7.55l2.61,6.35a1.15,1.15,0,0,1,.09.44.82.82,0,0,1-.56.78l-2.48,1c-.13.05-.26.15-.26.29s.11.27.37.27h10.12c.39,0,.49-.14.49-.3s-.18-.29-.34-.36l-2.15-.87c-.87-.36-1.16-.83-2.23-3.22l-.76-1.7c-.32-.71-.59-1.5-.92-2.2-.4-.94-.84-1.79-1.23-2.72-2.41-5.51-3.52-8.43-5-12.67h-2.75c-1.49,4.44-2,5.7-3.37,9.38-1.67,4.2-3.49,8.45-4.29,10.23-.9,2-1,2.38-1.81,2.74l-2.5,1.08c-.14.07-.3.17-.3.32s.11.29.39.29h9.55c.33,0,.44-.17.44-.3s-.22-.27-.39-.35l-2.42-1c-.39-.17-.46-.34-.46-.55a1.2,1.2,0,0,1,.1-.42Z"/><path class="cls-3" d="M209.53,334.27c0,.95.08,1.68.13,2.17s0,.94,0,1.31a28.63,28.63,0,0,1-3.07,13.56c-2.08,3.85-4.17,5.79-6.28,5.79a1.59,1.59,0,0,1-1-.27.8.8,0,0,1-.41-.72,4.27,4.27,0,0,1,.59-1.85,4.76,4.76,0,0,0,.55-1.68,1.69,1.69,0,0,0-.55-1.27,2.22,2.22,0,0,0-1.4-.5,2.74,2.74,0,0,0-2,.9,2.87,2.87,0,0,0-.86,2.08,4.2,4.2,0,0,0,1.72,3.49,7.36,7.36,0,0,0,4.56,1.31,12,12,0,0,0,6.24-1.9,39.21,39.21,0,0,0,7.82-6.79c1.32-1.4,2.26-2.39,2.81-3.07a3.08,3.08,0,0,0,.81-1.4.39.39,0,0,0-.13-.31.71.71,0,0,0-.4-.13c-.23,0-1.18.91-2.76,2.66s-3.16,3.44-4.57,4.85a14.84,14.84,0,0,0,.91-2.72,13.82,13.82,0,0,0,.27-2.76,25.77,25.77,0,0,0-.86-5.52,26.15,26.15,0,0,1-.86-5.47c0-1.67.54-2.71,1.68-3.12l.63-.22a3.9,3.9,0,0,0,1.49-1,1.83,1.83,0,0,0,.45-1.27,1.71,1.71,0,0,0-.45-1.31,1.93,1.93,0,0,0-1.4-.45,2.85,2.85,0,0,0-2,1,9.68,9.68,0,0,0-1.76,2.93c-1.17,1.27-2.76,3-4.75,5.11-4.83,5.29-7.28,8.18-7.28,8.68a.24.24,0,0,0,.13.23.44.44,0,0,0,.33.13c.36,0,1.8-1.45,4.34-4.38S207.14,336.67,209.53,334.27Z"/><path class="cls-1" d="M70.48,292.41v-7.77c0-1,.44-1.48,1.88-1.48,2.36,0,5.12,1.73,5.12,4.49a4.47,4.47,0,0,1-2.38,4,7.09,7.09,0,0,1-3.63.85C71.15,292.45,70.84,292.42,70.48,292.41Zm4.3,1.93A8.09,8.09,0,0,0,80,291.07a6.44,6.44,0,0,0,1-3.38c0-3.71-2.87-6.58-7.45-6.58H63.5c-.4,0-.55.17-.55.36s.28.35.5.42l2.16.76a1.53,1.53,0,0,1,1.25,1.59c.08,1.15,0,2.3.09,3.44,0,2.5.08,5,.08,7.52,0,1.5,0,3-.08,4.51,0,2.35-.08,2.76-.33,3.1a1.8,1.8,0,0,1-.9.6l-2.39.86c-.2.07-.48.14-.48.37s.09.32.57.32H74c.37,0,.48-.14.48-.28s-.18-.27-.33-.33l-2.81-1.08c-.69-.27-.82-.45-.83-1.19v-6.85c0-.3.11-.33.22-.33a.31.31,0,0,1,.2.11l7.86,8A8,8,0,0,0,81.63,305a6.84,6.84,0,0,0,2.6.5c2.24,0,2.33-.58,2.33-.69a.44.44,0,0,0-.3-.38c-1.18-.44-2.15-.63-4.9-3.4Z"/><path class="cls-3" d="M139.58,337.85c-.23.4-.59.94-1.09,1.71-4.29,6.48-6.42,10.86-6.42,13.21a6.12,6.12,0,0,0,1.4,4.25,4.61,4.61,0,0,0,3.62,1.58,7.67,7.67,0,0,0,4.25-1.67,57.56,57.56,0,0,0,7-6.38c1.81-1.86,3-3.12,3.49-3.75a3,3,0,0,0,.77-1.36.39.39,0,0,0-.13-.31.71.71,0,0,0-.4-.13c-.32,0-1,.67-2.26,2-.82.91-1.49,1.63-2,2.22a53,53,0,0,1-6.65,6.23,7.8,7.8,0,0,1-4.21,1.86,1.39,1.39,0,0,1-1.08-.54,1.83,1.83,0,0,1-.5-1.23,6,6,0,0,1,.81-2.49c.5-1,1.76-3.12,3.71-6.24l9.17-14.42-6.65.45c-3.75,3.85-6.65,7-8.68,9.32s-3.08,3.71-3.08,4.12a.26.26,0,0,0,.09.18.42.42,0,0,0,.28.08c.32,0,1.4-1,3.25-3.12S137.91,339.52,139.58,337.85Z"/><path class="cls-1" d="M50.57,293v-8.25c0-.9.44-1.44,2-1.44a6.23,6.23,0,0,1,4.66,2,4.9,4.9,0,0,1,1.09,3.14c0,2.79-2.2,5-5.5,5A6.58,6.58,0,0,1,50.57,293Zm0,2.46a12.28,12.28,0,0,0,2.39.23A9.28,9.28,0,0,0,60,293a6.91,6.91,0,0,0,2-5c0-2.59-1.68-7.11-9.73-7.11-1.64,0-3.28.19-4.93.19H43.55c-.52,0-.57.15-.57.31s.35.38.57.46l2.27.82A1.61,1.61,0,0,1,47,284.47c.08,3.1.11,6.2.15,9.29,0,3.46-.06,6-.09,6.87-.06,1.84-.25,2-.41,2.22a1.42,1.42,0,0,1-.71.53l-2.6,1c-.15.06-.3.15-.3.32s.13.3.46.3H54.11c.39,0,.49-.17.49-.31s-.16-.29-.32-.35l-2.78-1.06c-.8-.3-.91-.46-.92-1.32Z"/><path class="cls-4" d="M187.59,68.14l1.09.81-2.05.15A40.86,40.86,0,0,0,182,70l-1.24.31-1.62-1A18.19,18.19,0,0,0,172,66.72l-1.88-.3,2.21-.69a29.54,29.54,0,0,1,8.19-.36A15.82,15.82,0,0,1,187.59,68.14Z"/><path class="cls-1" d="M140.4,293.95h5c.9,0,1.19.2,1.5.89l1,2.29a.47.47,0,0,0,.39.3c.19,0,.36-.15.36-.45v-7.22c0-.36-.16-.48-.35-.48a.51.51,0,0,0-.39.27l-.75,1.17c-.33.51-.76.87-2.35.86H140.4V283.4c.63,0,1.28,0,1.91,0h1c1.16,0,2.31-.05,3.47,0a1.67,1.67,0,0,1,1.74,1.19l.85,1.81c.08.18.22.45.45.45s.33-.12.33-.46l0-5.75c-1.59.2-5.73.48-8.48.48h-8.36c-.36,0-.52.15-.52.33a.41.41,0,0,0,.32.36l2.46.86a1.36,1.36,0,0,1,1.07,1.24c.13.59.23,2.78.27,11,0,1.26,0,2.51,0,3.76,0,.67,0,1.34,0,2,0,.3,0,.6,0,.89a1.86,1.86,0,0,1-1.41,1.93l-2.24.77c-.19.06-.43.17-.43.37s.08.3.62.3h16.34c.75,0,1.16-.32,1.19-1.29l.12-4.11c0-.41-.16-.51-.32-.51s-.31.22-.39.39l-1,2a2.08,2.08,0,0,1-2.19,1.28H141.4c-.7,0-1-.33-1-1Z"/><path class="cls-3" d="M205.17,323.58l2.75-.31a101.37,101.37,0,0,1,6.5-9.05c1.81-2.2,3-3.32,3.64-3.32a.45.45,0,0,1,.34.12.71.71,0,0,1,.1.43,6.16,6.16,0,0,1-1.13,2.24l-.6.89a22.53,22.53,0,0,0-2,3.57,6.08,6.08,0,0,0-.48,2.28,5,5,0,0,0,.52,2.42,1.52,1.52,0,0,0,1.37.93,3,3,0,0,0,1.68-1,26.72,26.72,0,0,0,2.74-3l.23-.28a9.17,9.17,0,0,0,1.71-2.49.23.23,0,0,0-.08-.16.27.27,0,0,0-.17-.06c-.1,0-.35.27-.75.83s-.76,1-1.06,1.4a29.64,29.64,0,0,1-2.67,3c-.72.69-1.27,1-1.59,1a.52.52,0,0,1-.48-.24,1,1,0,0,1-.16-.61,3.8,3.8,0,0,1,.39-1.4,25.5,25.5,0,0,1,1.44-2.59c.09-.19.26-.46.48-.81,1.29-2.14,1.95-3.8,1.95-5a3,3,0,0,0-.41-1.66,1.23,1.23,0,0,0-1.07-.62c-.64,0-1.51.52-2.57,1.62a58.88,58.88,0,0,0-4.63,5.71,17.54,17.54,0,0,0,1.22-2.83,8,8,0,0,0,.37-2.3,3,3,0,0,0-.4-1.65,1.34,1.34,0,0,0-1.14-.6,2.79,2.79,0,0,0-1.77.84,25.15,25.15,0,0,0-2.88,3.32l-1.25,1.64c-.36.49-.6.86-.73,1.08a1.19,1.19,0,0,0-.18.5.16.16,0,0,0,.06.13.18.18,0,0,0,.13.06c.14,0,.45-.33.89-1s.7-1,1-1.32a31.84,31.84,0,0,1,3-3.51,2.74,2.74,0,0,1,1.64-1,.58.58,0,0,1,.42.13,1,1,0,0,1,.11.49,6.54,6.54,0,0,1-1,2.42c-.11.19-.19.33-.25.45Z"/><path class="cls-1" d="M294.95,304.65c0,.14.11.32.49.32L311,305a1.19,1.19,0,0,0,1.36-1.27l.21-4.2c0-.44-.14-.55-.34-.55s-.35.23-.45.41l-1.4,2.45a1.84,1.84,0,0,1-.8.76,4.62,4.62,0,0,1-2.16.28c-.89,0-1.82,0-2.17,0-2.44,0-2.72-.58-2.72-1.39V284.33c0-1,.24-1.23.8-1.44l2.86-1.06a.47.47,0,0,0,.36-.41c0-.2-.23-.32-.43-.32H295.52c-.42,0-.56.18-.56.35s.2.32.38.38l2.62.89c.54.18.68.32.75,1,.05.52.06,1.15.18,4.43q.09,3.91.13,7.81c0,1.53-.09,3.05-.09,4.58,0,.38,0,.76,0,1.14-.11,1.2-.41,1.45-1,1.67l-2.58.94C295.15,304.37,294.95,304.46,294.95,304.65Z"/><path class="cls-1" d="M124.44,304.1l-2.18-.81c-.57-.21-.85-.43-.84-1.57v-8H126a1.94,1.94,0,0,1,1.23.25,2.23,2.23,0,0,1,.62.91l1.11,2.28a.39.39,0,0,0,.32.27c.15,0,.27-.08.27-.44l-.06-7.56c0-.54-.17-.58-.33-.58s-.32.21-.43.38l-.85,1.35a1.92,1.92,0,0,1-1.88.88h-4.62v-8.07c.61-.07,3.58-.24,5.09-.24s1.78.27,2.06.78l1.41,2.57c.08.15.2.36.38.36s.27,0,.27-.49v-5.69c-1,.07-1.9.17-2.89.23-2.62.11-3.89.2-5,.2h-8.41c-.3,0-.45.16-.45.33a.42.42,0,0,0,.31.35l2.43.87c1,.35,1.11.55,1.18,1.27,0,.27.05.43.09,5,0,.83.06,1.66.08,2.49,0,2.25,0,4.49,0,6.74,0,.52,0,1,0,1.57,0,2.32,0,3.32-1.42,3.8l-2.31.77c-.17.06-.34.18-.34.36s.36.33.61.33l9.49,0Z"/><path class="cls-4" d="M180.49,73.09a8.36,8.36,0,0,1,.81,1.25,11.34,11.34,0,0,1,1.1,3.3,20.94,20.94,0,0,1-.21,7.59,35.43,35.43,0,0,1-7.56,15.58,29.5,29.5,0,0,1-7.63,6.63l-.87.56,0-24V77.79c0-.12.49-.63,1.43-1.18l1-.57a36.67,36.67,0,0,1,9.35-3.28l1.65-.41Z"/><path class="cls-1" d="M174.1,304.52a20.18,20.18,0,0,0,6.49,1.09,11.22,11.22,0,0,0,4.65-.92,6.47,6.47,0,0,0,3.77-5.85,5.53,5.53,0,0,0-.88-3.09c-.51-.85-1.56-2-4.35-3.44l-3.27-1.65a9,9,0,0,1-2.61-1.85,3.48,3.48,0,0,1-.75-2.1c0-1.85,1.81-3.78,4.78-3.78,2.12,0,3.08.77,3.51,1.68l1.4,3.05c.09.2.2.5.46.5s.33-.06.34-.59v-6.38a20.44,20.44,0,0,0-5.07-.79c-5.86,0-8.93,3.46-8.93,6.73a6.15,6.15,0,0,0,1,3.33,10.07,10.07,0,0,0,4.26,3.42l3.28,1.67a6.75,6.75,0,0,1,2.79,2.05,3,3,0,0,1,.65,1.86c0,1.78-1.72,3.62-4.52,3.62a8.06,8.06,0,0,1-3.46-.72,2.69,2.69,0,0,1-1.38-1.41l-1.4-2.92c-.08-.16-.19-.36-.39-.36s-.33.08-.33.52Z"/><path class="cls-1" d="M315,304.52a20.18,20.18,0,0,0,6.49,1.09,11.22,11.22,0,0,0,4.65-.92,6.47,6.47,0,0,0,3.78-5.85,5.53,5.53,0,0,0-.88-3.09c-.51-.85-1.56-2-4.36-3.44l-3.27-1.65a9,9,0,0,1-2.61-1.85,3.48,3.48,0,0,1-.75-2.1c0-1.85,1.81-3.78,4.78-3.78,2.12,0,3.08.77,3.51,1.68l1.4,3.05c.09.2.2.5.46.5s.33-.06.34-.59v-6.38a20.53,20.53,0,0,0-5.07-.79c-5.86,0-8.93,3.46-8.93,6.73a6.15,6.15,0,0,0,1,3.33,10.07,10.07,0,0,0,4.26,3.42l3.28,1.67a6.75,6.75,0,0,1,2.79,2.05,3,3,0,0,1,.65,1.86c0,1.78-1.72,3.62-4.52,3.62a8.05,8.05,0,0,1-3.46-.72,2.7,2.7,0,0,1-1.38-1.41l-1.4-2.92c-.08-.16-.19-.36-.39-.36s-.33.08-.33.52Z"/><path class="cls-1" d="M155.15,304.52a20.18,20.18,0,0,0,6.49,1.09,11.22,11.22,0,0,0,4.65-.92,6.47,6.47,0,0,0,3.78-5.85,5.53,5.53,0,0,0-.88-3.09c-.51-.85-1.56-2-4.36-3.44l-3.27-1.65a9,9,0,0,1-2.61-1.85,3.48,3.48,0,0,1-.75-2.1c0-1.85,1.81-3.78,4.78-3.78,2.12,0,3.08.77,3.51,1.68l1.4,3.05c.09.2.2.5.46.5s.33-.06.33-.59v-6.38a20.53,20.53,0,0,0-5.07-.79c-5.86,0-8.93,3.46-8.93,6.73a6.15,6.15,0,0,0,1,3.33,10.06,10.06,0,0,0,4.26,3.42l3.28,1.67a6.75,6.75,0,0,1,2.79,2.05,3,3,0,0,1,.65,1.86c0,1.78-1.72,3.62-4.52,3.62a8.05,8.05,0,0,1-3.46-.72,2.7,2.7,0,0,1-1.38-1.41l-1.4-2.92c-.08-.16-.19-.36-.39-.36s-.34.08-.34.52Z"/><path class="cls-3" d="M193.73,321.31a10,10,0,0,1,.58-3.05,17.38,17.38,0,0,1,1.61-3.56,13.82,13.82,0,0,1,2.15-2.9,2.88,2.88,0,0,1,1.88-.95,1.28,1.28,0,0,1,1.12.62,3.58,3.58,0,0,1,.38,1.76,9.23,9.23,0,0,1-.75,3.39,14.36,14.36,0,0,1-2,3.54,11.16,11.16,0,0,1-2,2.05,3.1,3.1,0,0,1-1.7.79,1,1,0,0,1-.9-.43A2.11,2.11,0,0,1,193.73,321.31Zm6.63-2.09a18.31,18.31,0,0,0,1.65-3.16,7.7,7.7,0,0,0,.5-2.59,4,4,0,0,0-.74-2.51,2.37,2.37,0,0,0-2-.93,5.93,5.93,0,0,0-3.33,1.3,17.38,17.38,0,0,0-3.6,3.64c-.67.9-1.12,1.54-1.32,1.83a1.54,1.54,0,0,0-.3.6.19.19,0,0,0,0,.13.24.24,0,0,0,.15.06.55.55,0,0,0,.35-.23,3.89,3.89,0,0,0,.52-.72c-.09.45-.17.86-.23,1.2a5.35,5.35,0,0,0-.08,1,7.78,7.78,0,0,0,.7,3.68,2.05,2.05,0,0,0,1.94,1.26,4.24,4.24,0,0,0,2.47-1,14.67,14.67,0,0,0,2.76-2.83,2.36,2.36,0,0,0,.37,0,2.16,2.16,0,0,0,.52,0,4.11,4.11,0,0,0,2.17-.65,6,6,0,0,0,1.85-1.82l.45-.62a.52.52,0,0,1,0-.07v-.16a.6.6,0,0,0,0-.2.12.12,0,0,0-.12-.08.42.42,0,0,0-.17,0,.49.49,0,0,0-.16.08l-.5.73a6.79,6.79,0,0,1-1.62,1.52,3.12,3.12,0,0,1-1.65.57,1.24,1.24,0,0,1-.47-.1Z"/><path class="cls-4" d="M158.64,112.06a12.48,12.48,0,0,1-7.05-.79A7.94,7.94,0,0,1,147.1,106a14.11,14.11,0,0,1-.27-5.74,20.7,20.7,0,0,1,2.82-7.71A36,36,0,0,1,154,86.72a28.16,28.16,0,0,1,2.74-2.62c1.08-.91,2.31-1.88,2.74-2.21l.65-.48,0,2.68,0,25.83,0,1.61Z"/><path class="cls-4" d="M209.32,100.26c-.11-1.61-.73-6.91-1.28-9.75l-1.5-6.45a6.76,6.76,0,0,1-.05-3L208,79a28.32,28.32,0,0,1,2.79-3.1c.71-.73,1.09-.93,1.37-1.2l.5-.46.78.46a7.22,7.22,0,0,1,1.95,1.53,16.37,16.37,0,0,1,4,9,25.43,25.43,0,0,1-2.79,13.4,16.47,16.47,0,0,1-3.84,4.78,14.81,14.81,0,0,1-3.14,1.63Z"/><path class="cls-4" d="M176.15,71.45a30.32,30.32,0,0,0-9,3.67l-1,.67V70.56a2.72,2.72,0,0,1,2.61-2.44l2.4.25,1.81.39a21.94,21.94,0,0,1,3.75,1.42l1.52.77Z"/><path class="cls-1" d="M191.43,304.65a.33.33,0,0,0,.37.3h10.8c.27,0,.38-.15.38-.28s-.15-.26-.3-.31l-2.78-1a1.14,1.14,0,0,1-.9-1.24l.06-17.92a1.09,1.09,0,0,1,.81-1.22l2.79-1.11c.16-.07.36-.18.36-.36s-.14-.32-.48-.32H192c-.42,0-.53.18-.53.33a.42.42,0,0,0,.31.36l2.68,1c.52.18.81.42.88,1.52.05.85.16,3.06.21,6.4,0,4.71,0,6.59-.12,9.5,0,.56,0,1.07-.08,1.65a1.49,1.49,0,0,1-1.07,1.51l-2.61.94A.35.35,0,0,0,191.43,304.65Z"/><path class="cls-4" d="M201.36,70.76h1.17a32.14,32.14,0,0,1,7.12,1.75l1,.39-1.23.87a16.15,16.15,0,0,0-3.17,2.67l-1.43,1.63-.18-.55a24,24,0,0,0-1.22-2.92l-.92-1.87Z"/><path class="cls-3" d="M151,317.86a2.67,2.67,0,0,0,.77,1.95,2.49,2.49,0,0,0,1.86.77,3.29,3.29,0,0,0,2.53-1.35,4.17,4.17,0,0,0,1.13-2.85,2.86,2.86,0,0,0-.67-1.95,2.3,2.3,0,0,0-1.81-.72A3.44,3.44,0,0,0,152.2,315,4.22,4.22,0,0,0,151,317.86Z"/><polygon class="cls-4" points="216.49 71.05 218.26 73.41 214.8 72.14 216.49 71.05"/></svg>